<svg width="50" height="54" viewBox="0 0 50 54" fill="none" xmlns="http://www.w3.org/2000/svg">
<path d="M20.162 54C18.7643 54 17.4257 53.4507 16.4383 52.4695L1.53322 37.6584C-0.486806 35.6338 -0.514621 32.3793 1.47064 30.3202L25.2624 5.95281C26.2568 4.93707 27.6197 4.36356 29.0452 4.36011H37.7164C38.1997 4.36011 38.5925 4.75051 38.5925 5.23074C38.5925 5.71097 38.1997 6.10137 37.7164 6.10137H29.0452C28.096 6.10137 27.1851 6.48487 26.5245 7.16203L2.73272 31.5329C1.40806 32.9044 1.42892 35.0741 2.77444 36.425L17.6795 51.2361C19.0529 52.5973 21.2711 52.5973 22.6444 51.2361L47.215 26.8204C47.8756 26.1674 48.2442 25.2795 48.2442 24.3536V8.72018C48.2442 7.27604 47.0655 6.10483 45.6122 6.10483H40.3483C39.865 6.10483 39.4722 5.71443 39.4722 5.2342C39.4722 4.75397 39.865 4.36356 40.3483 4.36356H45.6122C48.0355 4.36356 49.9965 6.31558 49.9999 8.72364V24.357C50.0034 25.7459 49.4471 27.0795 48.4597 28.0572L23.8891 52.473C22.9017 53.4542 21.5631 54.0069 20.1654 54.0035L20.162 54Z" fill="black"/>
<path d="M42.1007 16.5696C39.6773 16.5696 37.7164 14.6176 37.713 12.2095C37.713 11.7293 38.1058 11.3389 38.5891 11.3389C39.0724 11.3389 39.4653 11.7293 39.4653 12.2095C39.4653 13.6537 40.6439 14.8249 42.0972 14.8249C43.5505 14.8249 44.7292 13.6537 44.7292 12.2095C44.7292 10.7654 43.5505 9.59418 42.0972 9.59418C41.4575 9.59418 40.8351 9.82566 40.3553 10.2472C39.9903 10.565 39.4374 10.5305 39.1176 10.1712C38.7977 9.80839 38.8325 9.25906 39.1941 8.94121C41.0124 7.3485 43.7835 7.52125 45.3863 9.32816C46.9891 11.1351 46.8152 13.8886 44.9969 15.4813C44.1972 16.1827 43.1646 16.5696 42.0937 16.5731L42.1007 16.5696Z" fill="black"/>
<path d="M42.5422 11.3355C39.3923 11.3355 36.8368 8.79616 36.8403 5.66603C36.8368 2.53589 39.3923 0 42.5422 0C44.2146 0 45.8035 0.728983 46.8883 1.99693C47.2046 2.36315 47.1594 2.91593 46.7909 3.22687C46.4224 3.54127 45.8661 3.49635 45.5532 3.13013C44.1416 1.47869 41.6522 1.2714 39.9868 2.67409C38.3249 4.07678 38.1163 6.55048 39.5278 8.20537C40.2788 9.08637 41.381 9.59424 42.5422 9.59079C43.0255 9.59079 43.4184 9.98119 43.4184 10.4614C43.4184 10.9417 43.0255 11.3321 42.5422 11.3321V11.3355Z" fill="black"/>
</svg>
