<svg width="18" height="20" viewBox="0 0 18 20" fill="none" xmlns="http://www.w3.org/2000/svg">
<g clip-path="url(#clip0_1_100)">
<path fill-rule="evenodd" clip-rule="evenodd" d="M-3.45561e-06 4.42971C-0.0213273 3.70809 0.551751 3.10809 1.2661 3.10809H16.7286C17.4322 3.10809 18.0027 3.68917 17.9947 4.40269C17.96 7.7162 17.8427 10.2676 17.5522 12.954C17.5175 13.2676 17.2403 13.4946 16.9311 13.4594C16.6219 13.4243 16.398 13.1432 16.4327 12.8297C16.7206 10.1919 16.8352 7.68107 16.8698 4.39188C16.8698 4.3135 16.8085 4.25134 16.7312 4.25134H1.2661C1.1888 4.25134 1.12483 4.3162 1.1275 4.39728C1.27143 9.47296 1.54598 12.7189 2.24433 17.5324C2.35362 18.2946 3.00399 18.8594 3.76632 18.8594H10.8272C11.139 18.8594 11.3896 19.1162 11.3896 19.4297C11.3896 19.7432 11.1364 20 10.8272 20H3.76632C2.44957 20 1.32208 19.0243 1.13016 17.7C0.423808 12.8378 0.146598 9.54863 -3.45561e-06 4.42971Z" fill="#C18C92"/>
<path fill-rule="evenodd" clip-rule="evenodd" d="M9.48377 1.15135C9.16925 1.14054 8.86005 1.13783 8.54552 1.14864C7.65259 1.17567 7.06352 1.19459 6.59439 1.3054C6.16525 1.4081 5.84806 1.58378 5.52553 1.95135C5.19501 2.32432 5.05907 2.65135 5.00843 3.05405C4.94979 3.49999 4.99244 4.04054 5.05907 4.87297C5.10439 5.41891 5.18702 5.99999 5.30963 6.68648C5.3656 6.99729 5.16303 7.29459 4.8565 7.35135C4.54997 7.4081 4.25676 7.2027 4.20079 6.89189C4.07285 6.18378 3.98488 5.56216 3.93424 4.96756C3.93424 4.95135 3.93157 4.93243 3.92891 4.91621C3.86494 4.14864 3.81163 3.48648 3.88626 2.9054C3.96889 2.26756 4.20345 1.72972 4.68057 1.18918C5.16303 0.640535 5.68813 0.345941 6.33317 0.194589C6.93024 0.0540488 7.63393 0.0324272 8.46289 0.00810286C8.47889 0.00810286 8.49755 0.00810286 8.51354 0.00810286C8.85205 -0.00270795 9.18524 -5.24858e-06 9.52376 0.0108056C9.53975 0.0108056 9.55841 0.0108056 9.5744 0.0108056C10.39 0.0405353 11.0804 0.0648596 11.6668 0.210806C12.3039 0.367562 12.821 0.664859 13.2981 1.21351C13.7672 1.75135 14.0018 2.28108 14.0844 2.9027C14.159 3.47026 14.1057 4.1081 14.0417 4.84324L14.0364 4.89459C13.9831 5.5081 13.8872 6.15405 13.7565 6.89189C13.7006 7.2027 13.4074 7.4081 13.1035 7.35135C12.797 7.29459 12.5944 6.99729 12.6504 6.68918C12.7783 5.96756 12.8689 5.35945 12.9169 4.79729C12.9862 3.99729 13.0262 3.48378 12.9702 3.05675C12.9196 2.67027 12.7863 2.35135 12.4558 1.97297C12.1333 1.6054 11.8214 1.42702 11.4003 1.32432C10.9391 1.21081 10.3634 1.18648 9.48377 1.15405V1.15135Z" fill="#C18C92"/>
<path fill-rule="evenodd" clip-rule="evenodd" d="M14.8601 13.6351C15.1719 13.6351 15.4225 13.8919 15.4225 14.2054V19.4297C15.4225 19.7459 15.1693 20 14.8601 20C14.5509 20 14.2976 19.7432 14.2976 19.4297V14.2054C14.2976 13.8892 14.5509 13.6351 14.8601 13.6351Z" fill="#C18C92"/>
<path fill-rule="evenodd" clip-rule="evenodd" d="M11.7228 16.8189C11.7228 16.5027 11.976 16.2487 12.2852 16.2487H17.4376C17.7494 16.2487 18 16.5054 18 16.8189C18 17.1324 17.7468 17.3892 17.4376 17.3892H12.2852C11.9733 17.3892 11.7228 17.1324 11.7228 16.8189Z" fill="#C18C92"/>
</g>
<defs>
<clipPath id="clip0_1_100">
<rect width="18" height="20" fill="white"/>
</clipPath>
</defs>
</svg>
