<svg width="18" height="9" viewBox="0 0 18 9" fill="none" xmlns="http://www.w3.org/2000/svg">
<g clip-path="url(#clip0_1_172)">
<path d="M15.5398 5.225H15.3314C10.4753 5.225 5.61922 5.225 0.7631 5.225C0.303529 5.225 -0.0131745 4.91035 0.000901185 4.46998C0.0121617 4.103 0.306344 3.79416 0.663163 3.77599C0.727207 3.77236 0.791955 3.77526 0.856704 3.77526C5.68326 3.77526 10.5105 3.77526 15.3371 3.77526H15.5785C15.5102 3.69969 15.4659 3.64737 15.4187 3.59868C14.66 2.81749 13.9014 2.03558 13.1406 1.25585C12.9379 1.04801 12.8745 0.79876 12.9477 0.5248C13.0195 0.254473 13.2053 0.0807952 13.472 0.0190269C13.7332 -0.041288 13.9534 0.046641 14.1413 0.239939C14.9964 1.1185 15.8537 1.99561 16.7095 2.87272C17.0543 3.22662 17.3992 3.57979 17.7426 3.93514C18.0868 4.29121 18.0868 4.70978 17.7391 5.06658C16.5434 6.29541 15.3469 7.52278 14.1491 8.7487C13.8331 9.07207 13.4087 9.08225 13.1202 8.77849C12.8386 8.48201 12.8513 8.04236 13.156 7.72771C13.9098 6.94943 14.6657 6.17333 15.4215 5.39723C15.4666 5.35145 15.5187 5.3122 15.5672 5.27006C15.5581 5.2548 15.5489 5.23881 15.5398 5.22355V5.225Z" fill="black"/>
</g>
<defs>
<clipPath id="clip0_1_172">
<rect width="18" height="9" fill="white"/>
</clipPath>
</defs>
</svg>
