<svg width="16" height="16" viewBox="0 0 16 16" fill="none" xmlns="http://www.w3.org/2000/svg">
<g clip-path="url(#clip0_1_680)">
<path d="M15.4538 11.5704C14.7838 10.8939 14.1116 10.2263 13.4619 9.58132C13.109 9.2307 12.6953 9.04641 12.2637 9.04641C11.832 9.04641 11.4184 9.2307 11.0677 9.57907L10.9777 9.66897C10.6248 10.0196 10.2583 10.3814 9.90313 10.7455C9.83119 10.7096 9.757 10.6736 9.68731 10.6376C9.52544 10.559 9.37032 10.4826 9.23543 10.3972C8.17206 9.72965 7.19412 8.84189 6.2499 7.67543C5.79128 7.11131 5.4698 6.60786 5.24499 6.09993C5.55972 5.79651 5.86547 5.48636 6.16672 5.1807L6.39828 4.9492C7.13567 4.20977 7.13117 3.25234 6.39603 2.50841C6.17122 2.28141 5.93966 2.05217 5.71934 1.83191L5.42259 1.53524C5.31693 1.42961 5.21351 1.32622 5.10785 1.22059C4.88304 0.993592 4.64923 0.757604 4.41317 0.530605C4.06022 0.184489 3.64431 0.00244141 3.21492 0.00244141C2.78552 0.00244141 2.36962 0.184489 2.01891 0.530605C1.8503 0.699168 1.67944 0.867731 1.51757 1.0318C1.27927 1.27228 1.03197 1.51951 0.784679 1.75774C0.319314 2.19601 0.0630267 2.75114 0.0135676 3.40966C-0.0628691 4.44351 0.224893 5.37848 0.483429 6.07745C1.07244 7.6597 1.96945 9.15878 3.2329 10.6624C4.8066 12.5323 6.69953 14.0111 8.85999 15.0652C10.0493 15.6428 11.0699 15.9373 12.0636 15.9935C12.1355 15.9957 12.2097 16.0002 12.2794 16.0002C13.118 16.0002 13.8081 15.7035 14.332 15.1214C14.5568 14.8697 14.7973 14.636 15.0514 14.3887C15.1795 14.2629 15.3121 14.1348 15.4448 14.0022C16.1844 13.2582 16.1889 12.3075 15.4583 11.5704H15.4538ZM14.8131 13.3729C14.6872 13.4987 14.559 13.6246 14.4331 13.7504C14.1791 13.9977 13.9138 14.2561 13.671 14.5303C13.2843 14.9641 12.7965 15.1439 12.1175 15.1079C11.243 15.0585 10.3325 14.7933 9.25342 14.2696C7.20536 13.2717 5.40685 11.8693 3.91858 10.0982C2.72257 8.67557 1.87278 7.26414 1.32198 5.77853C0.982515 4.86605 0.85662 4.16033 0.906079 3.49057C0.939801 3.0568 1.10167 2.70394 1.40067 2.42076C1.65471 2.16679 1.9065 1.91282 2.15155 1.66784C2.31341 1.50602 2.47753 1.33746 2.64389 1.17339C2.76979 1.04753 2.96987 0.899197 3.21492 0.899197C3.45996 0.899197 3.66005 1.04753 3.79044 1.17339C4.0175 1.39814 4.25356 1.63188 4.47387 1.85663C4.57954 1.96227 4.68295 2.0679 4.78861 2.17129L5.08537 2.46796C5.30569 2.68821 5.535 2.91746 5.75981 3.14221C6.15548 3.54226 6.15998 3.92884 5.76206 4.3244C5.68562 4.40306 5.60694 4.47948 5.5305 4.55814C5.20902 4.88178 4.87629 5.2189 4.54357 5.53805C4.37945 5.69762 4.21759 5.96732 4.37945 6.35614C4.63799 6.97421 5.01118 7.57429 5.55298 8.2418C6.56015 9.48018 7.61228 10.4354 8.75658 11.1546C8.93418 11.2669 9.11628 11.3568 9.29163 11.4423C9.3973 11.4917 9.49397 11.5411 9.58839 11.5951C9.70754 11.6603 9.82669 11.6917 9.94584 11.6917C10.1347 11.6917 10.31 11.6086 10.4652 11.4512C10.8384 11.0647 11.2273 10.6826 11.6027 10.3095L11.6926 10.2196C11.8185 10.0937 12.0186 9.94541 12.2614 9.94541C12.5042 9.94541 12.7043 10.0937 12.8325 10.2196C13.4799 10.8646 14.1499 11.5299 14.8176 12.2042C15.2042 12.584 15.1997 12.9908 14.8176 13.3774L14.8131 13.3729Z" fill="white"/>
</g>
<defs>
<clipPath id="clip0_1_680">
<rect width="16" height="16" fill="white"/>
</clipPath>
</defs>
</svg>
