<svg width="69" height="63" viewBox="0 0 69 63" fill="none" xmlns="http://www.w3.org/2000/svg">
<g clip-path="url(#clip0_1_252)">
<path d="M51.9363 10.9475C52.494 10.9475 52.9482 10.4953 52.9482 9.94003V8.58745C52.9482 8.03214 52.494 7.57996 51.9363 7.57996C51.3785 7.57996 50.9243 8.03214 50.9243 8.58745V9.94003C50.9243 10.4953 51.3785 10.9475 51.9363 10.9475Z" fill="black"/>
<path d="M62.9362 19.884C62.3785 19.884 61.9243 20.3362 61.9243 20.8915C61.9243 21.4468 62.3785 21.899 62.9362 21.899H64.2948C64.8526 21.899 65.3068 21.4468 65.3068 20.8915C65.3068 20.3362 64.8526 19.884 64.2948 19.884H62.9362Z" fill="black"/>
<path d="M39.5817 19.884C39.0239 19.884 38.5697 20.3362 38.5697 20.8915C38.5697 21.4468 39.0239 21.899 39.5817 21.899H40.9403C41.498 21.899 41.9522 21.4468 41.9522 20.8915C41.9522 20.3362 41.498 19.884 40.9403 19.884H39.5817Z" fill="black"/>
<path d="M56.3705 52.0287C54.5737 52.0287 53.1155 53.4844 53.1155 55.2693C53.1155 57.0542 54.5777 58.51 56.3705 58.51C58.1633 58.51 59.6255 57.0542 59.6255 55.2693C59.6255 53.4844 58.1633 52.0287 56.3705 52.0287ZM56.3705 56.495C55.6892 56.495 55.1355 55.9436 55.1355 55.2654C55.1355 54.5871 55.6892 54.0357 56.3705 54.0357C57.0518 54.0357 57.6056 54.5871 57.6056 55.2654C57.6056 55.9436 57.0518 56.495 56.3705 56.495Z" fill="black"/>
<path d="M19.4622 55.2693C19.4622 57.0582 20.9243 58.51 22.7171 58.51C24.51 58.51 25.9721 57.0542 25.9721 55.2693C25.9721 53.4844 24.51 52.0287 22.7171 52.0287C20.9243 52.0287 19.4622 53.4844 19.4622 55.2693ZM23.9522 55.2693C23.9522 55.9476 23.3984 56.4989 22.7171 56.4989C22.0359 56.4989 21.4821 55.9476 21.4821 55.2693C21.4821 54.591 22.0359 54.0397 22.7171 54.0397C23.3984 54.0397 23.9522 54.591 23.9522 55.2693Z" fill="black"/>
<path d="M29.5817 39.8237C30.7211 38.717 30.8526 36.7933 29.5578 35.5399L25.3546 31.4702C23.8406 30.0026 21.4064 30.0344 19.9323 31.5416L19.1474 32.3468C18.757 32.7435 18.7649 33.3821 19.1673 33.7708L23.2191 37.6937L19.1673 41.6166C18.9761 41.803 18.8645 42.0568 18.8605 42.3226C18.8605 42.5883 18.9601 42.8462 19.1474 43.0366L19.9323 43.8418C21.4103 45.357 23.8406 45.3847 25.3546 43.9132L29.5777 39.8197L29.5817 39.8237ZM21.3825 42.4416L21.2988 42.3583L25.3665 38.4156C25.5617 38.2252 25.6733 37.9674 25.6733 37.6937C25.6733 37.42 25.5617 37.1622 25.3665 36.9718L21.2988 33.0291L21.3825 32.9458C22.0797 32.2318 23.2311 32.2159 23.9482 32.9101L28.1514 36.9797C28.6016 37.416 28.5378 38.0269 28.1753 38.3799L23.9522 42.4733C23.239 43.1635 22.0916 43.1595 21.3864 42.4376L21.3825 42.4416Z" fill="black"/>
<path d="M50.9283 20.8877C50.9283 21.443 51.3825 21.8951 51.9402 21.8951H55.3785C55.9363 21.8951 56.3904 21.443 56.3904 20.8877C56.3904 20.3323 55.9363 19.8802 55.3785 19.8802H52.9522V13.6131C52.9522 13.0578 52.498 12.6056 51.9402 12.6056C51.3825 12.6056 50.9283 13.0578 50.9283 13.6131V20.8877Z" fill="black"/>
<path d="M17.2669 12.2882H34.6693C35.2271 12.2882 35.6813 11.836 35.6813 11.2807C35.6813 10.7254 35.2271 10.2732 34.6693 10.2732H17.2669C16.7092 10.2732 16.255 10.7254 16.255 11.2807C16.255 11.836 16.7092 12.2882 17.2669 12.2882Z" fill="black"/>
<path d="M13.0478 17.4884H31.1155C31.6733 17.4884 32.1275 17.0362 32.1275 16.4809C32.1275 15.9256 31.6733 15.4734 31.1155 15.4734H13.0478C12.49 15.4734 12.0359 15.9256 12.0359 16.4809C12.0359 17.0362 12.49 17.4884 13.0478 17.4884Z" fill="black"/>
<path d="M23.3825 20.1102C22.8247 20.1102 22.3705 20.5624 22.3705 21.1177C22.3705 21.673 22.8247 22.1252 23.3825 22.1252H32.3705C32.9283 22.1252 33.3825 21.673 33.3825 21.1177C33.3825 20.5624 32.9283 20.1102 32.3705 20.1102H23.3825Z" fill="black"/>
<path d="M14.8606 20.1102C14.3028 20.1102 13.8486 20.5624 13.8486 21.1177C13.8486 21.673 14.3028 22.1252 14.8606 22.1252H19.3466C19.9044 22.1252 20.3586 21.673 20.3586 21.1177C20.3586 20.5624 19.9044 20.1102 19.3466 20.1102H14.8606Z" fill="black"/>
<path d="M1.01195 35.9841H4.70916C5.26693 35.9841 5.72112 35.5319 5.72112 34.9766C5.72112 34.4213 5.26693 33.9691 4.70916 33.9691H1.01195C0.454183 33.9691 0 34.4213 0 34.9766C0 35.5319 0.454183 35.9841 1.01195 35.9841Z" fill="black"/>
<path d="M3.70518 44.8453H1.01195C0.454183 44.8453 0 45.2975 0 45.8528C0 46.4081 0.454183 46.8603 1.01195 46.8603H3.70916C4.26693 46.8603 4.72112 46.4081 4.72112 45.8528C4.72112 45.2975 4.26693 44.8453 3.70916 44.8453H3.70518Z" fill="black"/>
<path d="M15.5976 36.3252H11.992C11.4343 36.3252 10.9801 36.7774 10.9801 37.3327C10.9801 37.888 11.4343 38.3402 11.992 38.3402H15.5976C16.1554 38.3402 16.6096 37.888 16.6096 37.3327C16.6096 36.7774 16.1554 36.3252 15.5976 36.3252Z" fill="black"/>
<path d="M61.4542 34.9885C66.1355 31.8471 69 26.5557 69 20.8876C69 18.1944 68.3865 15.6201 67.1713 13.2283C66.9203 12.7325 66.3108 12.5342 65.8127 12.784C65.3147 13.0339 65.1155 13.6408 65.3665 14.1366C66.4343 16.2428 66.9761 18.5117 66.9761 20.8876C66.9761 25.9846 64.3506 30.7364 60.0717 33.4813L54.1872 27.0714C53.502 26.3257 52.5299 25.9013 51.5179 25.9013H37.757C37.1833 24.2948 36.8924 22.613 36.8924 20.8876C36.8924 12.6294 43.6414 5.91009 51.9363 5.91009C56.239 5.91009 60.3466 7.75055 63.1992 10.9634C63.5697 11.3799 64.2072 11.4196 64.6255 11.0507C65.0438 10.6818 65.0837 10.0472 64.7131 9.63067C63.2271 7.96078 61.4462 6.6201 59.4781 5.65624V2.24504C59.4781 1.00749 58.4661 0 57.2231 0H46.6494C45.4064 0 44.3944 1.00749 44.3944 2.24504V5.65227C38.757 8.42882 34.8725 14.216 34.8725 20.8876C34.8725 22.6011 35.1275 24.2829 35.6295 25.9013H9.85657C8.56574 25.9013 7.50996 26.8929 7.40637 28.1503H3.70916C3.15139 28.1503 2.69721 28.6025 2.69721 29.1578C2.69721 29.7131 3.15139 30.1653 3.70916 30.1653H7.39442V39.8911H1.01195C0.454183 39.8911 0 40.3433 0 40.8986C0 41.4539 0.454183 41.9061 1.01195 41.9061H7.39442V44.8493C6.84064 44.8532 6.39442 45.3015 6.39442 45.8568C6.39442 46.4121 6.84064 46.8563 7.39442 46.8643V53.9841C7.39442 55.0392 8.25896 55.9 9.31872 55.9H12.0398V56.602H8.88446C8.32669 56.602 7.87251 57.0542 7.87251 57.6095C7.87251 58.1648 8.32669 58.617 8.88446 58.617H13.0478C13.6056 58.617 14.0598 58.1648 14.0598 57.6095V55.9039H14.9801C15.3028 59.8744 18.6494 63.0119 22.7171 63.0119C24.0598 63.0119 25.3865 62.6628 26.5538 62.0044C27.0398 61.7307 27.2072 61.1159 26.9323 60.632C26.6574 60.1481 26.0398 59.9815 25.5538 60.2552C24.6932 60.7431 23.7131 61.0009 22.7171 61.0009C19.5498 61.0009 16.9721 58.4345 16.9721 55.2812C16.9721 52.1278 19.5498 49.5615 22.7171 49.5615C25.8845 49.5615 28.4622 52.1278 28.4622 55.2812C28.4622 56.1419 28.2749 56.9669 27.9044 57.7404C27.6653 58.2402 27.8765 58.8431 28.3825 59.0811C28.8884 59.3191 29.49 59.1089 29.7291 58.6051C30.1394 57.7483 30.3785 56.844 30.4542 55.9039H48.6295C48.9522 59.8744 52.2988 63.0119 56.3665 63.0119C60.4343 63.0119 63.7849 59.8784 64.1036 55.9039H66.1833C67.7331 55.9039 68.996 54.6465 68.996 53.1036V44.6152C68.996 43.7149 68.6614 42.8541 68.0518 42.1917L61.4502 35.0004L61.4542 34.9885ZM46.4143 2.24504C46.4143 2.11811 46.5179 2.01102 46.6494 2.01102H57.2231C57.3506 2.01102 57.4582 2.11415 57.4582 2.24504V4.81534C55.6972 4.21639 53.8327 3.89907 51.9363 3.89907C50.0398 3.89907 48.1474 4.22036 46.4143 4.81137V2.24504ZM52.6972 28.4319L63.2151 39.8911H55.6733C55.1155 39.8911 54.6614 40.3433 54.6614 40.8986C54.6614 41.4539 55.1155 41.9061 55.6733 41.9061H65.0598L66.5618 43.5403C67.1753 44.2067 66.9163 44.9286 66.9761 45.6981H66.1952C65.6374 45.6981 65.1833 46.1503 65.1833 46.7056C65.1833 47.2609 65.6374 47.7131 66.1952 47.7131H66.9761V49.2005H61.1673C59.8446 48.1613 58.1793 47.5386 56.3665 47.5386C54.5538 47.5386 52.8884 48.1613 51.5657 49.2005H40.5538V27.9163H44.9123V39.8792C44.9123 40.9978 45.8247 41.9061 46.9482 41.9061H51.6335C52.1912 41.9061 52.6454 41.4539 52.6454 40.8986C52.6454 40.3433 52.1912 39.8911 51.6335 39.8911H46.9482C46.9482 39.8911 46.9363 39.8872 46.9363 39.8792V27.9163H51.5179C51.9641 27.9163 52.3944 28.1067 52.6972 28.4319ZM48.7331 53.881H40.5578V51.2115H49.7649C49.2629 52.0167 48.9084 52.9171 48.7331 53.881ZM29.3267 51.2115H38.5339V53.881H30.3546C30.1793 52.9171 29.8247 52.0167 29.3227 51.2115H29.3267ZM9.41434 51.2115H16.1116C15.6096 52.0167 15.255 52.9171 15.0797 53.881H9.41434V51.2115ZM17.9203 49.1966H9.41833V46.8563H13.7968C14.3546 46.8563 14.8088 46.4041 14.8088 45.8488C14.8088 45.2935 14.3546 44.8413 13.7968 44.8413H9.41833V41.8982H13.7968C14.3546 41.8982 14.8088 41.446 14.8088 40.8907C14.8088 40.3354 14.3546 39.8832 13.7968 39.8832H9.41833V28.3446C9.41833 28.1027 9.61753 27.9044 9.86056 27.9044H38.5418V49.1886H27.5259C26.2032 48.1494 24.5378 47.5267 22.7251 47.5267C20.9123 47.5267 19.247 48.1494 17.9243 49.1886L17.9203 49.1966ZM56.3705 60.989C53.2032 60.989 50.6255 58.4226 50.6255 55.2693C50.6255 52.1159 53.2032 49.5496 56.3705 49.5496C59.5378 49.5496 62.1155 52.1159 62.1155 55.2693C62.1155 58.4226 59.5378 60.989 56.3705 60.989ZM66.1912 53.881H64.0119C63.8367 52.9171 63.4821 52.0167 62.9801 51.2115H66.9841V53.0956C66.9841 53.528 66.6295 53.881 66.1952 53.881H66.1912Z" fill="black"/>
</g>
<defs>
<clipPath id="clip0_1_252">
<rect width="69" height="63" fill="white"/>
</clipPath>
</defs>
</svg>
