<svg width="56" height="69" viewBox="0 0 56 69" fill="none" xmlns="http://www.w3.org/2000/svg">
<g clip-path="url(#clip0_1_247)">
<path d="M55.8304 9.56286C55.7525 9.04793 55.4315 8.60657 54.9683 8.37669C54.5052 8.14681 53.9595 8.15601 53.5009 8.40428C51.9097 9.27321 50.4102 10.4824 49.0987 11.9398C49.0391 11.2961 48.8648 10.7168 48.5759 10.2249L49.7865 6.07332C50.0021 5.33771 49.8599 4.56073 49.4013 3.94465C48.9428 3.32858 48.2366 2.97917 47.4708 2.97917H30.967V2.41827C30.9762 1.08498 29.8986 -4.11244e-05 28.5687 -4.11244e-05H16.5864C16.027 -4.11244e-05 15.5776 0.450519 15.5776 1.01142C15.5776 1.57232 16.027 2.02288 16.5864 2.02288H28.5687C28.7842 2.02288 28.9631 2.20218 28.9631 2.41827V12.1789H25.1341C24.0106 12.1789 23.0705 12.611 22.3827 13.4064L20.7731 8.96518C20.631 8.56519 20.3375 8.24796 19.9569 8.06866C19.6405 7.92153 19.2965 7.88475 18.9618 7.95372C17.797 6.58365 16.2792 6.12389 14.7109 6.69859L9.8776 8.46404L8.14422 2.52401C8.09837 2.3585 8.16257 2.23437 8.20842 2.1746C8.25428 2.11483 8.35058 2.01828 8.52483 2.01828H11.666C12.2209 2.01828 12.6748 1.56772 12.6748 1.00682C12.6748 0.445921 12.2255 -0.00463867 11.666 -0.00463867H8.52483C7.75903 -0.00463867 7.05742 0.349372 6.59427 0.960846C6.13571 1.57692 5.99355 2.34931 6.20908 3.08951L8.0571 9.42033C7.38759 10.0364 6.98864 10.8961 6.89692 11.9306C5.59001 10.4732 4.08592 9.26402 2.49928 8.39508C2.0453 8.14681 1.49961 8.13762 1.03646 8.3675C0.573309 8.59737 0.252313 9.04334 0.174357 9.55366C-0.33465 12.9834 0.330269 16.7764 2.04989 20.2384C2.52221 21.1947 3.0679 22.1004 3.67321 22.9555C3.35222 23.2681 3.16879 23.7141 3.20547 24.1923C3.37973 26.2749 4.51697 28.1553 6.23201 29.2955C5.98438 30.0495 6.11278 30.8817 6.59886 31.5345L11.9549 38.7435C12.6244 39.6492 13.4361 40.417 14.3624 41.0377C13.8488 42.4583 13.8442 44.0399 13.8442 44.9272C13.8442 46.7662 13.8442 51.5982 18.4344 51.7408L17.2651 62.3703C17.2146 62.8438 17.3018 63.322 17.5219 63.745C18.0263 64.7288 19.5533 67.1931 22.7862 68.7517C23.121 68.9126 23.4786 68.9908 23.8363 68.9908C24.2582 68.9908 24.6755 68.8804 25.0469 68.6643C25.7348 68.2643 26.1842 67.5471 26.2392 66.7518L26.5969 61.7864C27.0463 61.7634 27.514 61.7496 27.9955 61.7496C28.477 61.7496 28.9447 61.7634 29.3987 61.7864L29.7564 66.7518C29.816 67.5471 30.2608 68.2643 30.9487 68.6643C31.3247 68.8804 31.742 68.9908 32.1593 68.9908C32.517 68.9908 32.8792 68.9126 33.2094 68.7517C36.4423 67.1931 37.9693 64.7334 38.4737 63.745C38.6938 63.3174 38.781 62.8438 38.7305 62.3703L38.5012 60.3014C38.4416 59.7451 37.9464 59.3451 37.3869 59.4095C36.8321 59.4692 36.4331 59.9704 36.4973 60.5267L36.7266 62.5956C36.7358 62.6737 36.722 62.7519 36.6853 62.8254C36.2726 63.63 35.0207 65.6437 32.3381 66.9357C32.1685 67.0184 32.0263 66.9632 31.9575 66.9219C31.8887 66.8851 31.7787 66.7931 31.7649 66.6092L30.6185 50.6925C31.1459 50.4718 31.609 50.127 31.9667 49.6857C33.214 50.5914 34.4429 51.1523 35.5022 51.4603L35.9562 55.6119C36.0112 56.1314 36.4515 56.513 36.9559 56.513C36.9926 56.513 37.0293 56.513 37.0659 56.5084C37.6208 56.4487 38.0198 55.9475 37.9556 55.3912L37.5566 51.7454C42.1423 51.6028 42.1468 46.7708 42.1468 44.9318C42.1468 44.0445 42.1468 42.4629 41.6287 41.0423C42.555 40.417 43.362 39.6492 44.0361 38.7481L49.3922 31.5391C49.8186 30.969 49.97 30.2564 49.8324 29.5852C51.7951 28.4956 53.1341 26.4772 53.3221 24.2014C53.3771 23.5716 53.0332 22.9877 52.5012 22.7072C53.0332 21.9303 53.5193 21.1073 53.9457 20.2476C55.6653 16.7856 56.3303 12.9926 55.8213 9.56286H55.8304ZM30.9762 5.00209H47.48C47.6496 5.00209 47.7505 5.10324 47.7964 5.15841C47.8422 5.21358 47.9064 5.34231 47.8606 5.50782L46.9113 8.76288C46.838 8.7307 46.76 8.69852 46.6821 8.67093L41.2939 6.70318C39.7302 6.13309 38.2078 6.59284 37.043 7.95831C36.2864 7.7974 35.5022 8.21578 35.2271 8.96518L33.6175 13.4064C32.9526 12.6386 32.0538 12.211 30.9762 12.1835V5.00209ZM40.6565 12.9191C39.3955 13.8202 38.382 15.0937 37.8134 16.6615L36.1763 21.1717C36.0433 21.0981 35.9149 21.0199 35.7911 20.928V16.3856C35.7911 15.8615 35.5343 15.3971 35.1445 15.1121L36.9742 10.0686L37.5383 10.2755C38.8819 10.7628 39.9687 11.6961 40.6565 12.9237V12.9191ZM39.1249 8.76748C39.8036 8.31232 40.3768 8.51921 40.6061 8.60197L45.9942 10.5697C46.2235 10.6525 46.7921 10.8594 47.0214 11.6501C45.4577 11.2915 43.8665 11.4249 42.4403 11.972C41.6791 10.6019 40.5189 9.4847 39.1295 8.77208L39.1249 8.76748ZM35.7911 26.6887V23.2268L39.8632 24.7164C40.0329 25.7646 40.4501 26.7531 41.0692 27.6082H35.7178C35.7682 27.3094 35.7911 27.0014 35.7911 26.6933V26.6887ZM39.854 22.5601L38.0564 21.9027L39.7073 17.3557C40.2438 15.8707 41.3306 14.6891 42.7567 14.0225C44.1829 13.3558 45.7833 13.2869 47.2644 13.8248L47.8285 14.0317L46.76 16.9741C46.5261 16.8638 46.2602 16.8132 45.985 16.8362C42.8118 17.1074 40.3263 19.5165 39.854 22.5647V22.5601ZM33.7734 16.8224V26.6887C33.7734 27.0014 33.7322 27.3094 33.6542 27.6036H27.2756V22.7302C27.2756 19.4706 29.9215 16.8178 33.1727 16.8178H33.7734V16.8224ZM25.1341 14.2018H30.8661C31.4256 14.2018 31.8704 14.4225 32.196 14.8638C30.6047 15.0615 29.1557 15.7374 28.0001 16.7396C26.817 15.7144 25.3496 15.0615 23.7996 14.8684C24.1252 14.4271 24.57 14.2064 25.1295 14.2064L25.1341 14.2018ZM22.2222 16.8224H22.8229C24.2307 16.8224 25.5926 17.3327 26.6519 18.243C25.7761 19.5211 25.2579 21.0659 25.2579 22.7302V27.6036H22.3368C22.2589 27.3048 22.2176 27.0014 22.2176 26.6887V16.8224H22.2222ZM19.026 10.0686L20.8557 15.1121C20.4659 15.4017 20.2091 15.8661 20.2091 16.3902V20.9326C20.0853 21.0199 19.9569 21.1027 19.8239 21.1763L18.1868 16.6661C17.6319 15.1351 16.646 13.8432 15.3483 12.9237C16.0361 11.7053 17.1413 10.7628 18.4619 10.2801L19.026 10.0732V10.0686ZM20.2824 27.6036H15.4721C16.1278 26.6933 16.5589 25.6313 16.7056 24.5049L20.2091 23.2222V26.6841C20.2091 26.9922 20.2366 27.3002 20.2824 27.599V27.6036ZM10.0106 10.5651L15.3987 8.59737C15.9215 8.40428 16.4167 8.46404 16.8753 8.76288C15.4859 9.4755 14.3349 10.5927 13.5691 11.9628C12.0971 11.3973 10.5104 11.2869 8.9834 11.6409C9.21268 10.8548 9.7813 10.6479 10.0106 10.5651ZM8.73577 13.8202C10.2169 13.2823 11.8173 13.3512 13.2435 14.0179C14.6696 14.6845 15.7518 15.8707 16.2929 17.3511L17.9438 21.8981L16.6506 22.3716C16.1049 19.4108 13.6608 17.0936 10.5517 16.827C10.0931 16.7902 9.65749 16.9603 9.35025 17.2638L8.17174 14.0225L8.73577 13.8156V13.8202ZM6.06234 14.0868L8.48815 20.8268L8.31389 21.9624L5.72758 22.3578C5.01222 21.4337 4.3794 20.4223 3.84288 19.3464C2.41216 16.4684 1.79768 13.3512 2.0774 10.4962C3.53564 11.3927 4.90217 12.6202 6.05775 14.0822L6.06234 14.0868ZM5.26902 24.4773L9.35484 23.852C9.79047 23.7831 10.1298 23.4429 10.1986 23.0061L10.8222 18.9097C13.1426 19.328 14.8347 21.3969 14.743 23.8107C14.6834 25.3416 13.89 26.7485 12.6061 27.6082H8.5661C8.23594 27.6082 7.91494 27.6726 7.62146 27.7967C6.38792 27.0979 5.52123 25.875 5.26902 24.4819V24.4773ZM15.8573 44.9364C15.8573 41.8974 16.3113 40.1366 18.6362 40.1366C19.9248 40.1366 21.7361 40.9319 23.2677 42.1457C23.2677 42.2054 23.2677 42.2606 23.2677 42.3204V47.5478C23.2677 47.6076 23.2677 47.6627 23.2677 47.7225C21.7361 48.9409 19.9248 49.7362 18.6362 49.7362C16.8753 49.7362 15.8573 48.9501 15.8573 44.9364ZM24.2307 66.6138C24.2169 66.7931 24.1023 66.8851 24.0381 66.9265C23.9693 66.9678 23.8272 67.023 23.6575 66.9403C20.9749 65.6483 19.723 63.6346 19.3103 62.83C19.2736 62.7565 19.2598 62.6783 19.269 62.6002L20.4934 51.4649C21.5573 51.1615 22.7816 50.596 24.0289 49.6903C24.3866 50.1316 24.8498 50.4764 25.3771 50.6971L24.2307 66.6138ZM28.0001 59.7359C27.5736 59.7359 27.1518 59.7451 26.7436 59.7589L27.3765 50.95H28.6192L29.252 59.7589C28.8439 59.7405 28.4266 59.7313 27.9955 59.7313L28.0001 59.7359ZM30.7148 47.5478C30.7148 48.311 30.0957 48.9317 29.3345 48.9317H26.6657C25.9045 48.9317 25.2854 48.311 25.2854 47.5478V42.3204C25.2854 41.5572 25.9045 40.9365 26.6657 40.9365H29.3345C30.0957 40.9365 30.7148 41.5572 30.7148 42.3204V47.5478ZM37.3594 49.7362C36.0709 49.7362 34.2595 48.9409 32.7279 47.7271C32.7279 47.6673 32.7279 47.6076 32.7279 47.5478V42.3204C32.7279 42.2606 32.7279 42.2008 32.7279 42.1457C34.2595 40.9319 36.0709 40.1366 37.3594 40.1366C39.1203 40.1366 40.1383 40.9227 40.1383 44.9364C40.1383 47.9754 39.6843 49.7362 37.3594 49.7362ZM47.7872 30.3346L42.4311 37.5435C41.913 38.2378 41.2985 38.8308 40.5923 39.3182C39.8815 38.5964 38.8543 38.1182 37.3594 38.1182C36.0617 38.1182 34.0486 38.6791 31.9713 40.1825C31.3476 39.4147 30.3984 38.9228 29.3345 38.9228H26.6657C25.6018 38.9228 24.6526 39.4147 24.0289 40.1825C21.9516 38.6745 19.9385 38.1182 18.6408 38.1182C17.1459 38.1182 16.1141 38.601 15.4079 39.3182C14.7017 38.8308 14.0872 38.2378 13.5691 37.5435L8.21301 30.3346C8.07085 30.1415 8.12588 29.9622 8.17174 29.8702C8.21759 29.7783 8.32765 29.6266 8.5661 29.6266H47.4295C47.668 29.6266 47.778 29.7783 47.8239 29.8702C47.8697 29.9622 47.9248 30.1415 47.7826 30.3346H47.7872ZM48.6539 27.9255C48.2916 27.7186 47.8743 27.6036 47.4341 27.6036H43.9307C42.6467 26.7439 41.8488 25.337 41.7937 23.8061C41.702 21.3923 43.3941 19.3189 45.7145 18.9051L46.3381 23.0015C46.4069 23.4383 46.7463 23.7785 47.1819 23.8474L51.2677 24.4727C50.9972 25.9715 50.0204 27.2588 48.6539 27.9255ZM52.1527 19.3464C51.6346 20.3947 51.0201 21.3786 50.3276 22.2843L48.2182 21.9624L47.8835 19.7832L49.9333 14.0822C51.0934 12.6202 52.4554 11.3927 53.9136 10.4962C54.1979 13.3512 53.5789 16.4638 52.1482 19.3464H52.1527Z" fill="black"/>
</g>
<defs>
<clipPath id="clip0_1_247">
<rect width="56" height="69" fill="white"/>
</clipPath>
</defs>
</svg>
