<svg width="17" height="17" viewBox="0 0 17 17" fill="none" xmlns="http://www.w3.org/2000/svg">
<g clip-path="url(#clip0_1_77)">
<path d="M12.4663 11.7654C12.4996 11.8 12.5321 11.8365 12.5667 11.8711C13.9661 13.2486 15.3648 14.6273 16.7662 16.0034C16.929 16.163 17.0433 16.3372 16.9848 16.5752C16.8891 16.9661 16.4446 17.1263 16.119 16.8889C16.0705 16.853 16.0273 16.8092 15.9841 16.7666C14.5767 15.3812 13.1694 13.9958 11.762 12.611C11.7308 12.5804 11.6982 12.5512 11.657 12.5133C11.5746 12.5711 11.4942 12.627 11.4151 12.6848C10.4045 13.4227 9.2795 13.8655 8.03693 14.0184C6.56312 14.1999 5.15708 13.9692 3.84873 13.2745C1.88519 12.2321 0.604745 10.628 0.156223 8.4388C-0.271701 6.35004 0.184796 4.43012 1.50711 2.74754C2.65001 1.29232 4.14907 0.40881 5.97638 0.105002C7.53924 -0.154931 9.04162 0.062455 10.4443 0.800372C12.4251 1.84143 13.7056 3.45421 14.1608 5.65466C14.5555 7.56195 14.1734 9.34026 13.0783 10.9564C12.8929 11.2303 12.6796 11.4849 12.4663 11.7654ZM7.34189 12.9953C7.56183 12.97 7.9738 12.9547 8.37183 12.8716C9.64364 12.605 10.7433 12.0127 11.6218 11.0441C12.9361 9.5962 13.4305 7.89634 13.0996 5.97509C12.875 4.67078 12.2524 3.56324 11.2616 2.68306C9.65095 1.25176 7.77513 0.791065 5.68534 1.27703C4.19957 1.62205 3.01481 2.45437 2.15099 3.70883C1.30045 4.94401 0.974195 6.32145 1.16689 7.8139C1.34032 9.15545 1.91975 10.3042 2.87925 11.2442C4.06069 12.4016 5.49796 12.972 7.34122 12.9953H7.34189Z" fill="#7E7E7E"/>
</g>
<defs>
<clipPath id="clip0_1_77">
<rect width="17" height="17" fill="white"/>
</clipPath>
</defs>
</svg>
