<svg width="15" height="20" viewBox="0 0 15 20" fill="none" xmlns="http://www.w3.org/2000/svg">
<g clip-path="url(#clip0_1_676)">
<path d="M6.97914 19.741C7.09563 19.9033 7.28866 20.0031 7.49834 20.0031C7.70801 20.0031 7.90104 19.9064 8.01753 19.741C9.49523 17.6599 11.6752 15.092 13.1928 12.4805C14.4076 10.39 14.9967 8.60843 14.9967 7.03276C15 3.15445 11.6352 0 7.50166 0C3.36809 0 0 3.15445 0 7.03276C0 8.60843 0.589084 10.39 1.80386 12.4805C3.3215 15.092 5.50477 17.6661 6.97914 19.741ZM7.50166 1.17317C10.9496 1.17317 13.7519 3.80031 13.7519 7.03276C13.7519 8.40874 13.2128 10.0062 12.1012 11.9189C10.7932 14.1716 8.92612 16.4555 7.50166 18.3744C6.08054 16.4555 4.21345 14.1685 2.90215 11.9189C1.79055 10.0062 1.25139 8.40874 1.25139 7.03276C1.25139 3.80031 4.05369 1.17317 7.50166 1.17317Z" fill="white"/>
<path d="M7.50169 10.5494C9.56847 10.5494 11.2525 8.9737 11.2525 7.03298C11.2525 5.09226 9.5718 3.5166 7.50169 3.5166C5.43157 3.5166 3.75085 5.09226 3.75085 7.03298C3.75085 8.9737 5.43157 10.5494 7.50169 10.5494ZM7.50169 4.68665C8.87954 4.68665 10.0011 5.73813 10.0011 7.02986C10.0011 8.32159 8.87954 9.37308 7.50169 9.37308C6.12383 9.37308 5.00224 8.32159 5.00224 7.02986C5.00224 5.73813 6.12383 4.68665 7.50169 4.68665Z" fill="white"/>
</g>
<defs>
<clipPath id="clip0_1_676">
<rect width="15" height="20" fill="white"/>
</clipPath>
</defs>
</svg>
