<svg width="355" height="70" viewBox="0 0 355 70" fill="none" xmlns="http://www.w3.org/2000/svg">
<g clip-path="url(#clip0_1_12)">
<path fill-rule="evenodd" clip-rule="evenodd" d="M74.5606 16.9491C74.5878 17.6111 74.7421 18.663 75.0869 19.6606C75.7221 21.5377 77.2465 23.3515 79.4242 23.0975C83.6073 22.5988 88.5708 15.1988 95.1131 17.738C97.4995 18.663 99.6864 20.8485 100.43 23.4966C102.599 31.2411 93.9789 38.115 86.2569 32.2658L73.2086 23.1429C72.6097 22.6985 72.1923 22.4174 71.4482 21.9277C69.2251 20.4495 65.4413 17.33 63.2182 16.3778C56.6759 13.6028 50.6508 17.9829 49.2352 23.0431C47.3841 29.6813 52.1933 35.4489 57.8736 36.0293C63.3089 36.5824 66.2398 33.1183 69.5336 31.1595C70.0418 30.8511 70.6316 30.4975 71.1851 30.0984C72.5371 29.119 72.1016 28.4661 71.2758 28.4298C70.5136 28.3936 65.7589 31.8124 64.9876 32.293C62.4923 33.8619 60.6865 35.2222 56.7575 34.1884C51.5672 32.819 48.0465 25.8634 52.2931 20.6944C59.1893 12.2969 66.4667 20.8848 71.9473 24.1404C72.6097 24.5304 72.8729 24.748 73.508 25.2649L86.3295 34.3334C88.7523 35.7935 91.6741 36.6641 94.9135 35.73C103.978 33.1273 105.149 20.7488 96.5014 16.6045C87.0101 12.0521 81.1937 24.0225 77.7183 20.8576C76.6567 19.9961 76.2847 17.992 76.2847 17.0579C76.2847 16.0694 76.5297 16.405 75.0688 16.3324C74.5515 16.3052 74.5152 16.2871 74.5425 16.94" fill="#B76E79"/>
<path d="M74.5606 16.9491C74.5878 17.6111 74.7421 18.663 75.0869 19.6606C75.7221 21.5377 77.2465 23.3515 79.4242 23.0975C83.6073 22.5988 88.5708 15.1988 95.1131 17.738C97.4995 18.663 99.6864 20.8485 100.43 23.4966C102.599 31.2411 93.9789 38.115 86.2569 32.2658L73.2086 23.1429C72.6097 22.6985 72.1923 22.4174 71.4482 21.9277C69.2251 20.4495 65.4413 17.33 63.2182 16.3778C56.6759 13.6028 50.6508 17.9829 49.2352 23.0431C47.3841 29.6813 52.1933 35.4489 57.8736 36.0293C63.3089 36.5824 66.2398 33.1183 69.5336 31.1595C70.0418 30.8511 70.6316 30.4975 71.1851 30.0984C72.5371 29.119 72.1016 28.4661 71.2758 28.4298C70.5136 28.3936 65.7589 31.8124 64.9876 32.293C62.4923 33.8619 60.6865 35.2222 56.7575 34.1884C51.5672 32.819 48.0465 25.8634 52.2931 20.6944C59.1893 12.2969 66.4667 20.8848 71.9473 24.1404C72.6097 24.5304 72.8729 24.748 73.508 25.2649L86.3295 34.3334C88.7523 35.7935 91.6741 36.6641 94.9135 35.73C103.978 33.1273 105.149 20.7488 96.5014 16.6045C87.0101 12.0521 81.1937 24.0225 77.7183 20.8576C76.6567 19.9961 76.2847 17.992 76.2847 17.0579C76.2847 16.0694 76.5297 16.405 75.0688 16.3324C74.5515 16.3052 74.5152 16.2871 74.5425 16.94" fill="#B76E79"/>
<path fill-rule="evenodd" clip-rule="evenodd" d="M68.599 4.56149C67.4285 4.36198 66.3578 4.21688 65.2144 4.34384C62.0386 15.1717 77.8272 22.0547 84.0247 11.9161C84.8051 10.6465 85.3405 8.75115 85.3858 7.04626C85.3223 3.77252 85.3132 3.99017 81.7472 4.55242C80.1774 2.34876 79.6239 0.15418 75.4952 1.46665e-05C71.5481 -0.136013 69.7514 1.95882 68.599 4.55242M70.0781 4.9333C70.5318 2.87474 72.7549 1.45098 75.1867 1.46912C78.29 1.48725 79.3516 3.60929 80.1139 5.1056C77.8907 6.29358 75.9761 8.17983 75.0597 10.1024C74.7693 8.8237 70.6225 4.96957 70.069 4.9333M76.2484 15.1173C75.7765 9.99354 79.4515 5.45927 83.8523 6.31171C84.1064 10.9095 80.6583 14.8361 76.2484 15.1173ZM74.488 15.1898C70.8675 15.3893 65.0965 10.5649 66.5574 5.73133C71.5843 6.31171 74.4063 10.1749 74.488 15.1898Z" fill="#B76E79"/>
<path d="M68.599 4.56149C67.4285 4.36198 66.3578 4.21688 65.2144 4.34384C62.0386 15.1717 77.8272 22.0547 84.0247 11.9161C84.8051 10.6465 85.3405 8.75115 85.3858 7.04626C85.3223 3.77252 85.3132 3.99017 81.7472 4.55242C80.1774 2.34876 79.6239 0.15418 75.4952 1.46665e-05C71.5481 -0.136013 69.7514 1.95882 68.599 4.55242M70.0781 4.9333C70.5318 2.87474 72.7549 1.45098 75.1867 1.46912C78.29 1.48725 79.3516 3.60929 80.1139 5.1056C77.8907 6.29358 75.9761 8.17983 75.0597 10.1024C74.7693 8.8237 70.6225 4.96957 70.069 4.9333M76.2484 15.1173C75.7765 9.99354 79.4515 5.45927 83.8523 6.31171C84.1064 10.9095 80.6583 14.8361 76.2484 15.1173ZM74.488 15.1898C70.8675 15.3893 65.0965 10.5649 66.5574 5.73133C71.5843 6.31171 74.4063 10.1749 74.488 15.1898Z" fill="#B76E79"/>
<path d="M15.3803 30.1438C15.3803 34.9864 11.1973 36.2832 8.28452 36.2832H1.41554C1.99628 35.993 2.05072 35.6484 2.07794 34.9592V17.4297C2.05072 16.7677 1.9872 16.3868 1.41554 16.1057H6.40621C11.0521 16.1057 12.15 18.3547 12.15 19.8873C12.15 22.1091 9.78172 23.5782 8.36618 24.3581C10.4986 23.8684 15.3803 25.3103 15.3803 30.1529M3.46625 28.3845C4.64587 24.8659 10.5349 24.5757 10.5349 19.5336C10.5349 18.9532 10.3897 16.278 6.03418 16.278H3.46625V28.3845ZM13.7924 30.1438C13.7924 25.5007 10.0993 24.1767 8.16656 24.5213C8.07582 24.5213 7.99415 24.5485 7.90341 24.612C5.94344 25.7093 3.94717 26.8338 3.45718 28.9921V36.1109H7.78545C9.37339 36.1109 13.7833 35.1587 13.7833 30.1438" fill="#B76E79"/>
<path d="M8.28448 36.6187H-3.55495e-05L1.26124 35.9839C1.66957 35.7844 1.71494 35.6031 1.74216 34.9411V17.4206C1.71494 16.7768 1.65142 16.5863 1.26124 16.3959L-0.0091095 15.7611H6.3971C10.8796 15.7611 12.4766 17.8831 12.4766 19.8692C12.4766 21.6829 11.0974 22.9978 9.69094 23.9319C10.9068 24.0225 12.3405 24.4941 13.5111 25.4191C14.5183 26.2171 15.707 27.6862 15.707 30.1347C15.707 34.9138 11.7054 36.6097 8.2754 36.6097M3.80195 35.7754H7.79449C7.84893 35.7754 13.4657 35.7119 13.4657 30.1438C13.4657 28.321 12.8577 26.8429 11.7144 25.8907C10.5802 24.9475 9.15558 24.6845 8.23911 24.8568C8.15744 24.8568 8.13022 24.875 8.103 24.8931C6.21562 25.9541 4.28287 27.0242 3.81102 29.0374V35.7844L3.80195 35.7754ZM3.80195 16.6045V27.0605C4.49157 26.1355 5.51692 25.4463 6.50599 24.7752C8.41151 23.4875 10.2082 22.2723 10.2082 19.5336C10.2082 18.654 9.79983 16.6045 6.04321 16.6045H3.81102H3.80195Z" fill="#B76E79"/>
<path d="M134.839 34.9592V17.4297C134.839 16.7949 134.893 16.6045 135.311 16.405L136.645 15.7702H132.879L124.086 33.9344L116.01 17.2574L115.375 15.7702H111.718L113.016 16.3868C113.424 16.5773 113.479 16.7586 113.479 17.3844V17.7743V35.9023C113.488 36.1744 113.461 36.256 113.288 36.3467L112.59 36.6187H115.294L114.595 36.3467C114.413 36.256 114.386 36.1834 114.386 35.9023V33.8166L114.595 19.0439L123.415 37.3351L132.353 19.2888L132.752 34.9592C132.752 35.594 132.697 35.7844 132.28 35.9839L130.946 36.6187H136.635L135.302 35.9839C134.884 35.7844 134.83 35.594 134.83 34.9592" fill="#B76E79"/>
<path d="M153.214 24.9475C150.165 23.4966 147.279 22.1272 147.651 19.316C147.878 17.5567 149.738 16.3234 152.197 16.3234C154.938 16.3234 156.489 17.6927 158.104 19.9054L158.703 20.7307V18.1008L158.567 18.001C156.462 16.405 154.711 15.48 152.016 15.48C149.176 15.48 146.744 17.1939 146.236 19.5518C145.41 23.5328 149.194 25.3647 152.524 26.9879C155.518 28.4389 158.34 29.8173 158.032 32.4381C157.741 34.7415 155.636 36.0837 152.37 36.0111C149.502 35.9567 147.098 34.8504 145.41 32.819L144.82 32.1026V34.6146L144.965 34.7143C147.016 36.1472 149.648 36.9089 152.569 36.9089C156.344 36.9089 159.094 35.0408 159.565 32.157C160.164 28.2485 156.634 26.5708 153.214 24.9475Z" fill="#B76E79"/>
<path d="M181.987 25.4282C180.826 24.5032 179.383 24.0316 178.167 23.9409C179.573 23.0069 180.953 21.6919 180.953 19.8782C180.953 17.8922 179.356 15.7702 174.873 15.7702H168.467L169.737 16.405C170.127 16.6045 170.191 16.7949 170.218 17.4297V34.9501C170.191 35.6121 170.146 35.7935 169.737 35.993L168.476 36.6278H176.751C180.181 36.6278 184.183 34.932 184.183 30.1529C184.183 27.6953 182.985 26.2353 181.987 25.4372M174.973 24.7752C173.984 25.4463 172.968 26.1355 172.269 27.0605V16.6135H174.501C178.267 16.6135 178.666 18.663 178.666 19.5427C178.666 22.2723 176.869 23.4966 174.973 24.7843M172.269 29.0284C172.741 27.0152 174.673 25.9451 176.561 24.884C176.579 24.875 176.606 24.8568 176.697 24.8478C177.613 24.6845 179.047 24.9385 180.172 25.8816C181.325 26.8429 181.924 28.312 181.924 30.1438C181.924 35.7119 176.316 35.7754 176.252 35.7754H172.26V29.0284H172.269Z" fill="#B76E79"/>
<path d="M206.314 15.7702L207.648 16.405C208.075 16.6135 208.12 16.7858 208.12 17.4297V30.1438C208.12 33.9979 205.244 36.0111 202.394 36.0111C200.362 36.0111 196.524 34.8413 196.524 30.4068V17.4297C196.524 16.7858 196.569 16.6135 196.995 16.405L198.329 15.7702H192.631L193.965 16.405C194.391 16.6135 194.437 16.7858 194.437 17.4297V29.9443C194.437 34.7597 198.429 36.9089 202.385 36.9089C205.579 36.9089 208.982 34.4695 208.982 29.9443V17.4297C208.982 16.7858 209.027 16.6135 209.454 16.405L210.788 15.7702H206.296H206.314Z" fill="#B76E79"/>
<path d="M233.164 35.1043C233.137 35.0408 230.905 29.0374 230.451 27.7497C229.798 26.063 229.09 25.011 227.547 24.6936C229.589 23.551 231.603 22.3177 231.603 19.851C231.603 19.1709 231.313 15.7702 225.56 15.7702H219.063L220.397 16.405C220.824 16.6135 220.869 16.7768 220.869 17.4297V34.9592C220.869 35.5758 220.824 35.7572 220.388 35.993L219.19 36.6187H224.644L223.446 35.993C223.01 35.7663 222.965 35.5849 222.965 34.9592V29.0012C223.328 27.4414 224.544 26.4348 226.268 25.4372C227.193 25.4735 227.575 26.1083 228.491 28.4208C229.081 29.9171 230.687 34.3244 230.995 35.2131C231.068 35.4126 231.077 35.5668 231.014 35.6847C230.914 35.8842 230.669 35.9658 230.669 35.9658L229.253 36.6187H235.932L234.108 35.9567C234.081 35.9567 233.436 35.7754 233.191 35.0952M222.938 27.0605V16.6135H225.17C229.035 16.6135 229.335 18.8263 229.335 19.5064C229.335 22.2632 227.538 23.4875 225.633 24.7752C224.644 25.4463 223.627 26.1355 222.938 27.0605Z" fill="#B76E79"/>
<path d="M254.397 18.5542C254.098 17.6927 253.617 16.9763 252.991 16.4685C252.591 16.1601 252.101 15.9153 251.53 15.7248C250.949 15.5525 250.423 15.48 249.76 15.48V15.8155V15.9878V16.3234C250.432 16.3234 250.749 16.3778 251.285 16.541C251.72 16.668 252.12 16.8765 252.437 17.1486C252.918 17.5295 253.308 18.1189 253.571 18.8444C253.825 19.588 253.907 20.4405 253.789 21.2748C253.744 21.8098 253.59 22.3811 253.263 23.2517C252.882 24.1495 252.483 24.9294 251.993 25.7184L249.933 29.0646L243.508 17.2302C243.372 16.9944 243.336 16.7858 243.39 16.6317C243.39 16.6045 243.409 16.5863 243.427 16.5682C243.49 16.4957 243.581 16.4412 243.708 16.3778L244.951 15.7883H240.777H238.999L240.396 16.4231C240.396 16.4231 240.977 16.6952 241.449 17.5476L248.309 30.2526V34.9864C248.309 35.6031 248.263 35.7844 247.828 36.0202L246.63 36.6459H251.993L250.849 36.0202C250.432 35.7935 250.386 35.6212 250.359 34.9864V30.035L252.728 26.1718C253.308 25.2559 253.744 24.4034 254.089 23.5782C254.415 22.7076 254.597 22.0184 254.687 21.3927C254.787 20.4223 254.687 19.4339 254.415 18.5996" fill="#B76E79"/>
<path d="M64.0983 56.5514C64.0983 55.3543 64.0621 53.3774 64.0439 53.0418C64.0076 52.5521 63.9169 52.3708 63.3543 52.3708H62.4741C62.3652 52.3708 62.3471 52.2801 62.3471 52.1803V51.7723C62.3471 51.6816 62.3652 51.6453 62.4741 51.6453C62.6828 51.6453 63.3543 51.6997 64.9059 51.6997C66.7207 51.6997 67.5011 51.6453 67.6735 51.6453C67.8277 51.6453 67.8368 51.6997 67.8368 51.7904V52.2166C67.8368 52.3073 67.8005 52.3708 67.6463 52.3708H66.5211C65.9404 52.3708 65.8678 52.5612 65.8678 53.0963C65.8678 53.3411 65.8133 56.1614 65.8133 57.4673V59.0724C65.8133 59.3898 65.8133 63.4253 65.8678 64.1871C66.2761 64.2233 69.9783 64.2596 70.559 64.1871C71.6569 64.0238 72.7821 61.7748 73.0453 61.0494C73.0816 60.9768 73.1179 60.9405 73.1904 60.9768L73.4899 61.0856C73.5443 61.1219 73.5443 61.14 73.5262 61.2489C73.4717 61.3758 72.7277 64.4591 72.6097 64.967C72.3647 64.9488 70.9129 64.9307 69.2433 64.9307C67.5827 64.9126 65.7498 64.9126 64.7426 64.9126C64.0167 64.9126 63.4722 64.9307 63.0821 64.9307C62.71 64.9488 62.4832 64.967 62.3562 64.967C62.2291 64.967 62.2019 64.9307 62.2019 64.84V64.3684C62.2019 64.2778 62.22 64.2415 62.338 64.2415H63.2363C63.9259 64.2415 64.0439 63.9785 64.0439 63.7336C64.0439 63.38 64.0983 58.7278 64.0983 57.5852V56.5423V56.5514Z" fill="#B76E79"/>
<path d="M81.8379 61.131C81.8379 62.0288 81.8379 62.9447 81.8742 63.3346C81.9287 63.915 82.1374 63.9876 82.3642 63.9876C82.4731 63.9876 82.7544 63.9876 82.9812 63.9331C83.1355 63.8969 83.1899 63.9331 83.2081 64.0057L83.2625 64.2505C83.2807 64.3594 83.2444 64.4047 83.1718 64.4138L81.2118 65.0667C81.1029 65.103 80.985 65.1393 80.8398 65.1393C80.7672 65.1393 80.6946 65.103 80.6765 64.9125L80.5313 63.8334H80.495C79.9687 64.5589 78.8889 65.1393 77.9543 65.1393C77.428 65.1393 76.811 65.0848 76.1939 64.2777C75.4226 63.2893 75.468 62.6726 75.468 60.6141V58.4467C75.4499 57.9207 75.1867 57.7937 74.7602 57.7393C74.4427 57.7212 74.3519 57.7031 74.3519 57.6124V57.2768C74.3519 57.168 74.3882 57.1317 74.5606 57.1317H76.2211C76.33 57.1317 76.4117 57.1136 76.4843 57.0955C76.5569 57.0955 76.6295 57.0773 76.693 57.0773C76.82 57.0773 76.9198 57.168 76.9017 57.304C76.8835 57.4673 76.8291 58.3469 76.8291 59.4533V60.7773C76.8291 61.5209 76.6385 62.718 77.2374 63.5795C77.7002 64.2505 78.2265 64.2868 78.7346 64.2868C79.2428 64.2868 79.9868 63.7971 80.3407 63.3528C80.4133 63.2621 80.5313 63.0172 80.5313 62.8449V58.4013C80.495 57.8754 80.1955 57.7847 79.7237 57.7484C79.4061 57.7484 79.3154 57.7121 79.3154 57.6214V57.304C79.3154 57.1499 79.3517 57.1408 79.5422 57.1408H81.2844C81.4114 57.1408 81.5113 57.1227 81.602 57.1045C81.6927 57.1045 81.7653 57.0864 81.8288 57.0864C81.9377 57.0864 82.0194 57.1771 82.0012 57.2768C81.9831 57.4491 81.8924 57.9298 81.8924 59.7616V61.14L81.8379 61.131Z" fill="#B76E79"/>
<path d="M86.3386 64.8219C86.3386 64.8944 86.3204 64.976 86.2025 64.976C86.0392 64.976 85.5492 64.9216 84.7416 64.9216C83.807 64.9216 83.4894 64.976 83.2988 64.976C83.1536 64.976 83.1355 64.9035 83.1355 64.8037V64.4682C83.1355 64.3775 83.1536 64.305 83.2807 64.305H83.7707C84.179 64.305 84.3877 64.2324 84.542 64.0782C84.8958 63.7608 86.638 61.4484 86.9556 61.0856C86.2479 59.9883 85.1771 58.4739 84.7507 58.0023C84.5964 57.8119 84.3423 57.7393 84.0792 57.7393H83.5529C83.444 57.7393 83.4259 57.6668 83.4259 57.6124V57.2406C83.4259 57.1136 83.444 57.0773 83.5801 57.0773C83.7253 57.0773 84.2334 57.1317 85.1136 57.1317C85.9938 57.1317 86.6834 57.0773 86.8558 57.0773C86.9466 57.0773 86.9647 57.1317 86.9647 57.2406V57.5942C86.9647 57.7031 86.9284 57.7393 86.8558 57.7393H86.6834C86.384 57.7393 86.384 58.0386 86.6108 58.3741L87.7723 60.206L89.1969 58.3379C89.3693 58.1111 89.3058 57.7393 88.9882 57.7393H88.7613C88.6706 57.7393 88.6525 57.6849 88.6525 57.6124V57.2224C88.6525 57.1136 88.6706 57.0773 88.7432 57.0773C88.97 57.0773 89.2876 57.1317 90.3493 57.1317C91.0933 57.1317 91.2839 57.0773 91.4109 57.0773C91.5652 57.0773 91.5833 57.1499 91.5833 57.2678V57.6033C91.5833 57.7121 91.5652 57.7484 91.4382 57.7484H91.1387C90.7848 57.7484 90.5943 57.821 90.4128 57.9751C90.0952 58.2381 88.5073 60.1969 88.1171 60.6866C88.8612 61.7839 89.6143 62.9265 90.431 63.915C90.6578 64.178 90.9209 64.305 91.2567 64.305H91.5561C91.6287 64.305 91.6469 64.3412 91.6469 64.45V64.8219C91.6469 64.8944 91.6287 64.976 91.5198 64.976C91.3565 64.976 90.9935 64.9216 90.0771 64.9216C89.0154 64.9216 88.4528 64.976 88.2441 64.976C88.1171 64.976 88.0989 64.9035 88.0989 64.8037V64.4863C88.0989 64.3594 88.1171 64.2959 88.2441 64.2959H88.5254C88.7341 64.2959 88.843 64.0148 88.6343 63.6974L87.2914 61.5481C87.0282 61.9199 85.7942 63.5795 85.6671 63.8787C85.5764 64.0873 85.649 64.2868 85.8758 64.2868H86.266C86.3386 64.2868 86.3567 64.3594 86.3567 64.4319V64.8037L86.3386 64.8219Z" fill="#B76E79"/>
<path d="M99.4777 61.131C99.4777 62.0288 99.4777 62.9447 99.514 63.3346C99.5684 63.915 99.7771 63.9876 100.004 63.9876C100.113 63.9876 100.394 63.9876 100.621 63.9331C100.775 63.8969 100.83 63.9331 100.848 64.0057L100.902 64.2505C100.92 64.3594 100.884 64.4047 100.812 64.4138L98.8516 65.0667C98.7427 65.103 98.6247 65.1393 98.4795 65.1393C98.407 65.1393 98.3344 65.103 98.3162 64.9125L98.171 63.8334H98.1347C97.6085 64.5589 96.5286 65.1393 95.594 65.1393C95.0677 65.1393 94.4507 65.0848 93.8337 64.2777C93.0715 63.2893 93.1078 62.6726 93.1078 60.6141V58.4467C93.0896 57.9207 92.8265 57.7937 92.4 57.7393C92.0824 57.7212 91.9917 57.7031 91.9917 57.6124V57.2768C91.9917 57.168 92.028 57.1317 92.2004 57.1317H93.8609C93.9698 57.1317 94.0515 57.1136 94.1241 57.0955C94.1967 57.0955 94.2692 57.0773 94.3328 57.0773C94.4598 57.0773 94.5596 57.168 94.5415 57.304C94.5233 57.4673 94.4689 58.3469 94.4689 59.4533V60.7773C94.4689 61.5209 94.2783 62.718 94.8772 63.5795C95.34 64.2505 95.8663 64.2868 96.3744 64.2868C96.8825 64.2868 97.6266 63.7971 97.9805 63.3528C98.0531 63.2621 98.171 63.0172 98.171 62.8449V58.4013C98.1347 57.8754 97.8353 57.7847 97.3635 57.7484C97.0459 57.7484 96.9551 57.7121 96.9551 57.6214V57.304C96.9551 57.1499 96.9914 57.1408 97.182 57.1408H98.9242C99.0512 57.1408 99.151 57.1227 99.2418 57.1045C99.3325 57.1045 99.4051 57.0864 99.4686 57.0864C99.5775 57.0864 99.6592 57.1771 99.641 57.2768C99.6229 57.4491 99.5321 57.9298 99.5321 59.7616V61.14L99.4777 61.131Z" fill="#B76E79"/>
<path d="M102.953 59.952C102.953 58.9999 102.799 58.8094 102.282 58.5374L101.928 58.3469C101.819 58.3106 101.782 58.2925 101.782 58.22V58.1111C101.782 58.0386 101.819 58.0023 101.928 57.9388L103.779 56.9866C103.888 56.9322 103.969 56.9141 104.042 56.9141C104.151 56.9141 104.169 57.0229 104.169 57.1408L104.26 58.4285H104.332C104.895 57.567 105.775 56.8053 106.573 56.8053C107.209 56.8053 107.526 57.1952 107.526 57.6305C107.526 58.1746 107.082 58.5464 106.737 58.5464C106.528 58.5464 106.347 58.4739 106.192 58.3923C106.047 58.3016 105.82 58.2381 105.575 58.2381C105.276 58.2381 104.786 58.4285 104.468 59.018C104.359 59.2266 104.278 59.5621 104.278 59.6165V63.5432C104.278 64.1236 104.405 64.3049 104.804 64.3049H105.684C105.793 64.3049 105.811 64.3594 105.811 64.4772V64.8128C105.811 64.9216 105.793 64.9851 105.721 64.9851C105.612 64.9851 104.75 64.9307 103.742 64.9307C102.581 64.9307 101.801 64.9851 101.683 64.9851C101.61 64.9851 101.574 64.9488 101.574 64.7946V64.4772C101.574 64.3503 101.61 64.3049 101.782 64.3049H102.508C102.79 64.3049 102.917 64.1961 102.917 63.9513C102.935 63.3346 102.935 62.6817 102.935 61.7113V59.952H102.953Z" fill="#B76E79"/>
<path d="M108.152 69.0478C108.152 68.6578 108.561 68.3223 109.014 68.3223C109.368 68.3223 109.704 68.4855 109.876 68.5309C110.003 68.549 110.158 68.5309 110.267 68.4221C110.548 68.0865 111.501 65.9554 111.764 65.2299C111.673 64.7584 109.686 58.9364 109.541 58.5464C109.314 58.0749 109.15 57.7575 108.66 57.7575H108.17C108.034 57.7575 108.016 57.703 108.016 57.5942V57.2224C108.016 57.1499 108.034 57.0955 108.17 57.0955C108.334 57.0955 108.788 57.1499 109.885 57.1499C110.838 57.1499 111.419 57.0955 111.628 57.0955C111.782 57.0955 111.8 57.1499 111.8 57.2224V57.6124C111.8 57.7031 111.782 57.7575 111.691 57.7575H111.337C111.129 57.7575 111.056 57.8844 111.092 58.1655C111.147 58.5736 112.417 62.6907 112.626 63.0988H112.698C112.889 62.7996 114.513 58.9364 114.622 58.4648C114.731 57.9932 114.586 57.7575 114.304 57.7575H114.005C113.896 57.7575 113.869 57.7031 113.869 57.6124V57.2406C113.869 57.1499 113.887 57.0955 113.978 57.0955C114.223 57.0955 114.613 57.1499 115.511 57.1499C116.019 57.1499 116.446 57.0955 116.655 57.0955C116.764 57.0955 116.764 57.168 116.764 57.2406V57.5942C116.764 57.703 116.764 57.7575 116.673 57.7575H116.373C116.165 57.7575 115.901 57.8481 115.72 58.093C115.312 58.6008 114.078 61.4393 112.789 64.3684C111.873 66.4451 111.147 68.1772 110.811 68.7939C110.548 69.2836 110.212 70.009 109.223 70.009C108.515 70.009 108.161 69.6191 108.161 69.0569" fill="#B76E79"/>
<path d="M125.456 64.8037C124.186 64.2959 123.533 63.4797 123.233 62.3008C123.006 61.4574 122.934 60.206 122.934 57.7575V53.3139C122.934 52.661 122.807 52.3617 122.226 52.3617H121.346C121.237 52.3617 121.219 52.3254 121.219 52.1894V51.7813C121.219 51.6725 121.237 51.6362 121.382 51.6362C121.573 51.6362 122.489 51.6906 123.941 51.6906C125.393 51.6906 126.3 51.6362 126.5 51.6362C126.645 51.6362 126.663 51.6725 126.663 51.7451V52.2348C126.663 52.3254 126.645 52.3617 126.509 52.3617H125.574C125.03 52.3617 124.712 52.7154 124.676 53.1235C124.658 53.2958 124.64 54.6016 124.64 55.5538V56.7872C124.64 57.7756 124.712 60.1516 124.73 60.7501C124.749 61.6116 124.894 62.4822 125.329 63.1261C126.019 64.1327 127.217 64.4682 128.297 64.4682C129.376 64.4682 130.447 64.1145 131.1 63.4435C131.826 62.6545 132.071 61.5391 132.071 60.1516V56.1524C132.071 54.7286 132.035 53.6494 131.981 53.187C131.926 52.6973 131.627 52.3617 131.137 52.3617H130.311C130.202 52.3617 130.184 52.3073 130.184 52.2075V51.7632C130.184 51.6725 130.202 51.6362 130.311 51.6362C130.501 51.6362 131.354 51.6906 132.607 51.6906C133.859 51.6906 134.494 51.6362 134.666 51.6362C134.839 51.6362 134.857 51.7088 134.857 51.7632V52.1713C134.857 52.2801 134.839 52.3617 134.748 52.3617H133.986C133.296 52.3617 133.242 52.8877 133.178 53.1053C133.142 53.2958 133.142 55.9438 133.142 56.2068C133.142 56.4698 133.106 59.7344 133.051 60.469C132.942 62.0016 132.525 63.1805 131.481 64.0783C130.737 64.7675 129.594 65.2028 127.97 65.2028C126.999 65.2028 126.064 65.0758 125.447 64.8128" fill="#B76E79"/>
<path d="M143.377 63.906C143.377 64.2052 143.55 64.2959 143.786 64.2959H144.385C144.548 64.2959 144.593 64.3503 144.593 64.4682V64.7675C144.593 64.8944 144.557 64.9761 144.439 64.9761C144.312 64.9761 143.731 64.9216 142.661 64.9216C141.708 64.9216 141.109 64.9761 140.982 64.9761C140.873 64.9761 140.828 64.9216 140.828 64.7675V64.4682C140.828 64.3412 140.882 64.2959 141.073 64.2959H141.617C141.826 64.2959 141.971 64.2052 141.989 63.8697C142.007 63.38 142.025 62.7905 142.025 62.3008V59.8342C142.025 59.0906 142.025 58.5465 141.481 58.1565C141.036 57.821 140.583 57.821 140.12 57.821C139.82 57.821 139.167 57.957 138.605 58.5465C138.233 58.9545 138.178 59.4624 138.178 59.8161V63.6793C138.178 64.1871 138.233 64.2959 138.623 64.2959H139.095C139.249 64.2959 139.285 64.3503 139.285 64.4864V64.8037C139.285 64.9126 139.249 64.9761 139.158 64.9761C139.031 64.9761 138.523 64.9216 137.534 64.9216C136.545 64.9216 135.982 64.9761 135.873 64.9761C135.783 64.9761 135.746 64.9216 135.746 64.8037V64.4682C135.746 64.3594 135.783 64.2959 135.937 64.2959H136.481C136.726 64.2959 136.853 64.2415 136.853 63.9241V59.5531C136.853 58.9908 136.554 58.6734 136.082 58.4558L135.937 58.3832C135.81 58.3288 135.783 58.2744 135.783 58.22V58.1293C135.783 58.0386 135.855 57.9842 135.955 57.9389L137.561 57.0411C137.715 56.9685 137.824 56.9141 137.897 56.9141C137.988 56.9141 138.024 56.9867 138.051 57.1408L138.187 58.2835H138.223C138.768 57.6124 139.848 56.9232 140.782 56.9232C141.345 56.9232 141.926 57.032 142.37 57.3313C142.933 57.7031 143.396 58.6371 143.396 59.1087V63.9241L143.377 63.906Z" fill="#B76E79"/>
<path d="M149.176 63.1986H149.23C149.53 62.4731 150.836 59.281 151.027 58.5464C151.154 58.0386 151.027 57.7393 150.691 57.7393H150.319C150.265 57.7393 150.246 57.6487 150.246 57.5489V57.2134C150.246 57.1045 150.283 57.0592 150.355 57.0592C150.618 57.0592 151.027 57.1136 151.853 57.1136C152.578 57.1136 153.032 57.0592 153.195 57.0592C153.341 57.0592 153.359 57.0773 153.359 57.2315V57.5489C153.359 57.6759 153.359 57.7393 153.268 57.7393H152.914C152.687 57.7393 152.506 57.7756 152.333 57.9479C152.052 58.2109 151.118 60.2423 150.836 60.9405C150.609 61.5028 149.23 64.6405 149.158 64.7675C149.003 65.0304 148.913 65.1937 148.713 65.1937C148.531 65.1937 148.413 65.0304 148.323 64.8037C148.286 64.713 146.925 61.1582 146.862 61.0131C146.807 60.8589 146.036 58.7369 145.909 58.4376C145.664 57.8935 145.483 57.7484 145.138 57.7484H144.766C144.675 57.7484 144.657 57.6759 144.657 57.558V57.2224C144.657 57.0955 144.693 57.0683 144.866 57.0683C145.074 57.0683 145.392 57.1227 146.435 57.1227C147.424 57.1227 147.914 57.0683 148.114 57.0683C148.268 57.0683 148.305 57.1045 148.305 57.2224V57.558C148.305 57.6668 148.286 57.7484 148.178 57.7484H147.806C147.615 57.7484 147.47 57.8572 147.47 58.1021C147.47 58.4376 147.96 59.9883 148.069 60.3057C148.178 60.6594 148.985 62.8087 149.194 63.1986" fill="#B76E79"/>
<path d="M154.983 59.9521C154.947 60.1153 154.929 60.4236 154.929 60.8499C154.929 62.6817 156.09 64.0601 157.578 64.0601C158.721 64.0601 159.52 63.4072 159.838 62.7905C159.874 62.718 159.946 62.6817 160.001 62.6998L160.246 62.8268C160.3 62.8449 160.337 62.8994 160.246 63.1079C159.91 63.8515 158.939 65.1393 157.27 65.1393C156.208 65.1393 155.028 64.8219 154.339 63.8153C153.685 62.8631 153.522 62.1739 153.522 60.868C153.522 60.1425 153.713 58.8911 154.702 57.9026C155.509 57.0774 156.444 56.9141 157.378 56.9141C159.529 56.9141 160.128 58.9273 160.128 59.6619C160.128 59.9249 159.901 59.9612 159.602 59.9612H154.983V59.9521ZM157.959 59.3898C158.313 59.3898 158.467 59.2991 158.467 59.1268C158.467 58.7006 158.241 57.4673 157.025 57.4673C156.199 57.4673 155.419 58.0114 155.065 59.3898H157.959Z" fill="#B76E79"/>
<path d="M162.705 59.4805C162.705 58.8457 162.596 58.5102 161.661 58.356C161.534 58.3379 161.498 58.3016 161.498 58.229V58.0658C161.498 58.0114 161.534 57.9751 161.625 57.9388C162.224 57.7121 162.932 57.4129 163.64 57.0229C163.785 56.9504 163.884 56.9141 163.993 56.9141C164.084 56.9141 164.102 57.0048 164.084 57.1408C164.048 57.4582 164.048 58.6371 164.048 60.1878V62.2283C164.048 62.9537 164.048 63.6248 164.066 63.8334C164.102 64.1871 164.157 64.3231 164.365 64.3231H165.227C165.382 64.3231 165.418 64.3775 165.418 64.4863V64.8037C165.418 64.9307 165.382 64.9942 165.246 64.9942C165.091 64.9942 164.238 64.9398 163.449 64.9398C162.369 64.9398 161.634 64.9942 161.435 64.9942C161.344 64.9942 161.289 64.9579 161.289 64.84V64.4682C161.289 64.3594 161.344 64.3231 161.48 64.3231H162.396C162.605 64.3231 162.678 64.2505 162.696 63.9513C162.714 63.389 162.714 62.8086 162.714 62.2464V59.4986L162.705 59.4805ZM161.861 53.7855C161.861 53.323 162.251 52.8151 163.004 52.8151C163.658 52.8151 163.975 53.323 163.975 53.731C163.975 54.2207 163.64 54.7558 162.895 54.7558C162.487 54.7558 161.87 54.384 161.87 53.7855" fill="#B76E79"/>
<path d="M168.93 59.3535C168.93 60.3239 168.93 63.1442 168.948 63.7246C168.966 64.042 169.039 64.305 169.438 64.305H170.282C170.454 64.305 170.49 64.3594 170.49 64.4773V64.7947C170.49 64.9035 170.454 64.9851 170.381 64.9851C170.254 64.9851 169.429 64.9307 168.267 64.9307C167.106 64.9307 166.325 64.9851 166.153 64.9851C166.062 64.9851 166.026 64.9125 166.026 64.7947V64.4773C166.026 64.3503 166.062 64.305 166.271 64.305H167.169C167.378 64.305 167.559 64.178 167.578 63.8425C167.596 63.2621 167.596 60.0518 167.596 58.9636V57.7847C167.596 56.4607 167.578 54.7558 167.541 54.2752C167.505 53.6404 167.206 53.3411 166.607 53.1507L166.235 53.0237C166.144 52.9874 166.126 52.9693 166.126 52.933V52.7879C166.126 52.7335 166.18 52.6972 166.298 52.661C166.952 52.3617 167.795 52.0262 168.485 51.5727C168.648 51.4639 168.766 51.4276 168.875 51.4276C169.002 51.4276 169.048 51.5183 169.029 51.7632C169.011 52.7879 168.957 56.6783 168.957 57.7031V59.3626L168.93 59.3535Z" fill="#B76E79"/>
<path d="M172.723 59.9521C172.686 60.1153 172.668 60.4236 172.668 60.8499C172.668 62.6817 173.83 64.0601 175.318 64.0601C176.461 64.0601 177.26 63.4072 177.577 62.7905C177.613 62.718 177.686 62.6817 177.74 62.6998L177.985 62.8268C178.04 62.8449 178.076 62.8994 177.985 63.1079C177.65 63.8515 176.679 65.1393 175.009 65.1393C173.948 65.1393 172.768 64.8219 172.078 63.8153C171.425 62.8631 171.262 62.1739 171.262 60.868C171.262 60.1425 171.452 58.8911 172.441 57.9026C173.249 57.0774 174.183 56.9141 175.109 56.9141C177.26 56.9141 177.858 58.9273 177.858 59.6619C177.858 59.9249 177.632 59.9612 177.332 59.9612H172.713L172.723 59.9521ZM175.69 59.3898C176.044 59.3898 176.198 59.2991 176.198 59.1268C176.198 58.7006 175.971 57.4673 174.755 57.4673C173.929 57.4673 173.149 58.0114 172.795 59.3898H175.69Z" fill="#B76E79"/>
<path d="M185.317 53.5406C185.317 52.8333 185.19 52.6066 184.138 52.4343C184.029 52.4161 184.011 52.3798 184.011 52.3073V51.9899C184.011 51.9173 184.047 51.8811 184.156 51.8629C184.882 51.7178 185.853 51.5455 186.215 51.473C186.379 51.4549 186.515 51.4186 186.642 51.4186C186.733 51.4186 186.751 51.5546 186.733 51.7541C186.678 52.6882 186.66 55.3997 186.66 57.7666V61.8927C186.66 62.5819 186.696 63.4072 186.851 63.5976C187.023 63.7881 187.413 63.8969 187.676 63.915C187.94 63.9332 188.012 63.9513 188.048 64.051L188.085 64.2052C188.103 64.314 188.067 64.3684 187.958 64.4138L185.843 65.1211C185.735 65.1574 185.635 65.103 185.598 64.976L185.353 64.1508C184.755 64.7493 183.557 65.1574 182.604 65.1574C181.987 65.1574 181.279 65.1937 180.399 64.2959C179.446 63.3618 179.219 62.5185 179.219 61.267C179.219 60.1062 179.646 58.9727 180.526 58.093C181.252 57.3041 182.268 56.9141 183.312 56.9141C184.083 56.9141 184.755 57.0229 185.308 57.1952V53.5497L185.317 53.5406ZM185.317 59.4624C185.317 59.1994 185.317 58.8457 185.145 58.5464C184.882 58.0386 184.283 57.5398 183.185 57.5398C182.604 57.5398 181.969 57.7031 181.479 58.2109C180.753 58.9908 180.617 59.9883 180.617 60.6957C180.617 62.8087 182.078 64.3412 183.158 64.3412C184.237 64.3412 185.009 63.7971 185.19 63.3165C185.281 63.0354 185.299 62.8903 185.299 62.6817V59.4714L185.317 59.4624Z" fill="#B76E79"/>
<path d="M197.222 59.9702C197.222 60.8499 197.24 63.3891 197.259 63.652C197.295 64.0601 197.485 64.2506 197.876 64.2506H199.073C199.2 64.2506 199.218 64.305 199.218 64.3775V64.8219C199.218 64.9126 199.2 64.976 199.055 64.976C198.792 64.976 198.211 64.9216 196.46 64.9216C194.818 64.9216 194.083 64.976 193.883 64.976C193.756 64.976 193.738 64.9216 193.738 64.8491V64.3775C193.738 64.2868 193.756 64.2506 193.847 64.2506H194.654C195.289 64.2506 195.417 64.1599 195.48 63.652C195.498 63.4616 195.553 60.5506 195.553 58.3832V56.234C195.553 55.0007 195.534 52.9693 195.516 52.7789C195.48 52.4071 195.289 52.3708 194.79 52.3708H193.729C193.638 52.3708 193.62 52.3345 193.62 52.2166V51.7723C193.62 51.6816 193.638 51.6362 193.729 51.6362C193.937 51.6362 194.609 51.6906 196.378 51.6906C196.714 51.6906 197.821 51.6362 198.438 51.6362C200.552 51.6362 201.541 51.8448 202.603 52.5703C203.483 53.1688 204.028 54.2117 204.028 55.2818C204.028 57.6396 202.249 59.0906 199.282 59.0906C198.592 59.0906 197.839 59.0724 197.249 58.9999V59.9702H197.222ZM197.222 58.3288C197.594 58.4376 198.211 58.5011 198.937 58.5011C200.081 58.5011 201.088 57.8845 201.578 57.2315C201.986 56.6874 202.059 55.9982 202.059 55.3453C202.059 52.8968 199.781 52.2438 198.674 52.2438C198.356 52.2438 197.594 52.2438 197.213 52.3708V58.3288H197.222Z" fill="#B76E79"/>
<path d="M205.652 59.9521C205.616 60.1153 205.597 60.4236 205.597 60.8499C205.597 62.6817 206.759 64.0601 208.247 64.0601C209.39 64.0601 210.189 63.4072 210.506 62.7905C210.543 62.718 210.615 62.6817 210.67 62.6998L210.915 62.8268C210.969 62.8449 211.006 62.8994 210.915 63.1079C210.579 63.8515 209.608 65.1393 207.939 65.1393C206.877 65.1393 205.697 64.8219 205.008 63.8153C204.354 62.8631 204.182 62.1739 204.182 60.868C204.182 60.1425 204.373 58.8911 205.362 57.9026C206.169 57.0774 207.104 56.9141 208.038 56.9141C210.189 56.9141 210.788 58.9273 210.788 59.6619C210.788 59.9249 210.561 59.9612 210.261 59.9612H205.643L205.652 59.9521ZM208.628 59.3898C208.982 59.3898 209.136 59.2991 209.136 59.1268C209.136 58.7006 208.909 57.4673 207.694 57.4673C206.868 57.4673 206.087 58.0114 205.734 59.3898H208.628Z" fill="#B76E79"/>
<path d="M214.626 62.5819C214.626 63.9785 215.261 64.2233 215.597 64.2233C216.023 64.2233 216.568 64.1508 216.831 63.9785C216.922 63.9241 217.003 63.9422 217.058 64.0148L217.149 64.178C217.203 64.2506 217.167 64.3231 217.112 64.3866C216.922 64.577 216.16 65.1302 215.034 65.1302C214.118 65.1302 213.22 64.2506 213.22 63.5432C213.22 62.7815 213.274 61.131 213.274 60.868V60.4599C213.274 60.1244 213.292 58.8729 213.31 58.084H212.167C211.995 58.084 211.886 58.0114 211.886 57.8572C211.886 57.7031 211.995 57.6487 212.221 57.5217C212.666 57.2587 214.109 55.8077 214.354 55.173C214.408 55.0188 214.499 54.9825 214.617 54.9825C214.762 54.9825 214.808 55.1095 214.808 55.2636L214.717 57.1136H217.312C217.421 57.1136 217.484 57.2043 217.448 57.2769L217.258 57.9298C217.239 58.0205 217.203 58.0749 217.085 58.0749H214.671C214.635 58.9364 214.617 59.8342 214.617 60.6866V62.5547L214.626 62.5819Z" fill="#B76E79"/>
<path d="M223.709 62.6998C223.709 63.7609 223.936 64.0964 224.272 64.0964C224.571 64.0964 224.834 63.9513 224.925 63.8153C224.998 63.7246 225.034 63.6883 225.115 63.7427L225.306 63.8969C225.36 63.9513 225.397 64.042 225.288 64.2324C225.143 64.5136 224.78 65.1483 223.827 65.1483C223.156 65.1483 222.666 64.6587 222.502 63.8969H222.466C222.076 64.3594 221.459 64.7584 220.615 65.0395C220.261 65.1484 219.925 65.1483 219.508 65.1483C219.063 65.1483 218.383 64.7765 218.383 63.5976C218.383 62.7361 218.773 61.9925 220.252 61.3396C221.096 60.9678 222.067 60.5143 222.366 60.2513V59.0543C222.33 58.7369 222.312 58.2472 222.103 58.0114C221.894 57.7666 221.522 57.6033 220.978 57.6033C220.606 57.6033 220.025 57.7575 219.762 57.9933C219.499 58.2381 219.671 58.5193 219.671 58.8548C219.671 59.5077 219.444 59.9249 218.682 59.9249C218.383 59.9249 218.237 59.7526 218.237 59.3264C218.237 58.7278 218.764 58.0205 219.526 57.5671C220.306 57.0955 220.969 56.9141 221.804 56.9141C222.638 56.9141 223.038 57.1771 223.301 57.4129C223.691 57.8028 223.709 58.2381 223.709 58.7369V62.6998ZM222.348 60.8136C221.676 61.3214 219.844 61.6932 219.844 63.244C219.844 63.9332 220.252 64.2687 220.814 64.2687C221.377 64.2687 222.348 63.6158 222.348 63.1079V60.8136Z" fill="#B76E79"/>
<path d="M228.545 59.3535C228.545 60.3239 228.545 63.1442 228.564 63.7246C228.582 64.042 228.654 64.305 229.045 64.305H229.888C230.052 64.305 230.097 64.3594 230.097 64.4773V64.7947C230.097 64.9035 230.061 64.9851 229.988 64.9851C229.861 64.9851 229.035 64.9307 227.874 64.9307C226.713 64.9307 225.932 64.9851 225.76 64.9851C225.669 64.9851 225.633 64.9125 225.633 64.7947V64.4773C225.633 64.3503 225.669 64.305 225.878 64.305H226.776C226.985 64.305 227.166 64.178 227.184 63.8425C227.203 63.2621 227.203 60.0518 227.203 58.9636V57.7847C227.203 56.4607 227.184 54.7558 227.148 54.2752C227.112 53.6404 226.812 53.3411 226.213 53.1507L225.841 53.0237C225.751 52.9874 225.733 52.9693 225.733 52.933V52.7879C225.733 52.7335 225.787 52.6972 225.896 52.661C226.549 52.3617 227.393 52.0262 228.083 51.5727C228.246 51.4639 228.364 51.4276 228.473 51.4276C228.6 51.4276 228.645 51.5183 228.627 51.7632C228.609 52.7879 228.555 56.6783 228.555 57.7031V59.3626L228.545 59.3535Z" fill="#B76E79"/>
<path d="M236.286 54.8556C236.286 53.6041 236.077 53.3411 235.405 53.1144L235.215 53.06C235.006 53.0056 234.97 52.9693 234.97 52.9149V52.7607C234.97 52.7063 235.006 52.67 235.124 52.6066C235.668 52.3617 236.639 51.8811 237.102 51.5818C237.229 51.4911 237.383 51.4186 237.492 51.4186C237.628 51.4186 237.665 51.5093 237.638 51.736C237.619 51.8811 237.619 54.0122 237.619 55.6808V57.8482C238.218 57.2678 239.28 56.9141 240.196 56.9141C241.839 56.9141 243.617 58.2381 243.617 60.9133C243.617 63.0988 241.857 65.1574 239.734 65.1574C238.69 65.1574 237.955 64.9307 237.529 64.6677L236.785 65.0758C236.712 65.1302 236.658 65.1483 236.54 65.1302L236.313 65.0758C236.24 65.0577 236.222 65.0214 236.24 64.9307C236.276 64.6677 236.276 63.117 236.276 61.7567V54.8646L236.286 54.8556ZM237.628 60.9043C237.628 62.455 237.683 63.0172 237.91 63.6158C238.1 64.0601 238.881 64.5498 239.688 64.5498C240.804 64.5498 242.193 63.779 242.193 61.3396C242.193 59.5258 241.24 57.8119 239.407 57.8119C238.717 57.8119 238.046 58.0567 237.628 58.483V60.9133V60.9043Z" fill="#B76E79"/>
<path d="M244.116 69.0478C244.116 68.6578 244.525 68.3223 244.978 68.3223C245.332 68.3223 245.668 68.4855 245.84 68.5309C245.967 68.549 246.122 68.5309 246.231 68.4221C246.512 68.0865 247.465 65.9554 247.728 65.2299C247.637 64.7584 245.65 58.9364 245.505 58.5464C245.278 58.0749 245.114 57.7575 244.624 57.7575H244.144C244.007 57.7575 243.989 57.703 243.989 57.5942V57.2224C243.989 57.1499 244.007 57.0955 244.144 57.0955C244.307 57.0955 244.761 57.1499 245.859 57.1499C246.811 57.1499 247.392 57.0955 247.601 57.0955C247.746 57.0955 247.764 57.1499 247.764 57.2224V57.6124C247.764 57.7031 247.746 57.7575 247.655 57.7575H247.301C247.093 57.7575 247.02 57.8844 247.056 58.1655C247.111 58.5736 248.381 62.6907 248.59 63.0988H248.662C248.853 62.7996 250.477 58.9364 250.586 58.4648C250.695 57.9932 250.55 57.7575 250.268 57.7575H249.969C249.86 57.7575 249.842 57.7031 249.842 57.6124V57.2406C249.842 57.1499 249.86 57.0955 249.951 57.0955C250.196 57.0955 250.586 57.1499 251.484 57.1499C251.993 57.1499 252.419 57.0955 252.628 57.0955C252.737 57.0955 252.737 57.168 252.737 57.2406V57.5942C252.737 57.703 252.737 57.7575 252.646 57.7575H252.346C252.138 57.7575 251.875 57.8481 251.693 58.093C251.285 58.6008 250.051 61.4393 248.762 64.3684C247.846 66.4451 247.12 68.1772 246.784 68.7939C246.521 69.2836 246.185 70.009 245.196 70.009C244.488 70.009 244.134 69.6191 244.134 69.0569" fill="#B76E79"/>
<path d="M261.239 59.9702C261.239 60.8499 261.257 63.3891 261.275 63.652C261.311 64.0601 261.502 64.2506 261.892 64.2506H263.09C263.217 64.2506 263.235 64.305 263.235 64.3775V64.8219C263.235 64.9126 263.217 64.976 263.072 64.976C262.809 64.976 262.228 64.9216 260.477 64.9216C258.834 64.9216 258.099 64.976 257.9 64.976C257.773 64.976 257.755 64.9216 257.755 64.8491V64.3775C257.755 64.2868 257.773 64.2506 257.863 64.2506H258.671C259.306 64.2506 259.433 64.1599 259.497 63.652C259.515 63.4616 259.569 60.5506 259.569 58.3832V56.234C259.569 55.0007 259.551 52.9693 259.533 52.7789C259.497 52.4071 259.306 52.3708 258.807 52.3708H257.745C257.655 52.3708 257.637 52.3345 257.637 52.2166V51.7723C257.637 51.6816 257.655 51.6362 257.745 51.6362C257.954 51.6362 258.626 51.6906 260.395 51.6906C260.731 51.6906 261.838 51.6362 262.455 51.6362C264.569 51.6362 265.558 51.8448 266.62 52.5703C267.5 53.1688 268.044 54.2117 268.044 55.2818C268.044 57.6396 266.266 59.0906 263.299 59.0906C262.609 59.0906 261.856 59.0724 261.266 58.9999V59.9702H261.239ZM261.239 58.3288C261.611 58.4376 262.228 58.5011 262.954 58.5011C264.097 58.5011 265.104 57.8845 265.585 57.2315C265.994 56.6874 266.075 55.9982 266.075 55.3453C266.075 52.8968 263.798 52.2438 262.691 52.2438C262.373 52.2438 261.602 52.2438 261.23 52.3708V58.3288H261.239Z" fill="#B76E79"/>
<path d="M269.669 59.9521C269.632 60.1153 269.614 60.4236 269.614 60.8499C269.614 62.6817 270.776 64.0601 272.264 64.0601C273.407 64.0601 274.206 63.4072 274.523 62.7905C274.559 62.718 274.632 62.6817 274.686 62.6998L274.931 62.8268C274.986 62.8449 275.022 62.8994 274.931 63.1079C274.596 63.8515 273.625 65.1393 271.955 65.1393C270.894 65.1393 269.714 64.8219 269.024 63.8153C268.371 62.8631 268.199 62.1739 268.199 60.868C268.199 60.1425 268.389 58.8911 269.378 57.9026C270.186 57.0774 271.12 56.9141 272.055 56.9141C274.206 56.9141 274.804 58.9273 274.804 59.6619C274.804 59.9249 274.578 59.9612 274.278 59.9612H269.66L269.669 59.9521ZM272.636 59.3898C272.99 59.3898 273.144 59.2991 273.144 59.1268C273.144 58.7006 272.917 57.4673 271.701 57.4673C270.875 57.4673 270.095 58.0114 269.741 59.3898H272.636Z" fill="#B76E79"/>
<path d="M278.634 62.5819C278.634 63.9785 279.269 64.2233 279.605 64.2233C280.031 64.2233 280.575 64.1508 280.839 63.9785C280.929 63.9241 281.002 63.9422 281.065 64.0148L281.156 64.178C281.211 64.2506 281.174 64.3231 281.12 64.3866C280.929 64.577 280.167 65.1302 279.042 65.1302C278.126 65.1302 277.227 64.2506 277.227 63.5432C277.227 62.7815 277.282 61.131 277.282 60.868V60.4599C277.282 60.1244 277.3 58.8729 277.318 58.084H276.175C276.002 58.084 275.893 58.0114 275.893 57.8572C275.893 57.7031 276.002 57.6487 276.229 57.5217C276.674 57.2587 278.116 55.8077 278.361 55.173C278.416 55.0188 278.507 54.9825 278.625 54.9825C278.77 54.9825 278.815 55.1095 278.815 55.2636L278.724 57.1136H281.32C281.428 57.1136 281.483 57.2043 281.447 57.2769L281.256 57.9298C281.238 58.0205 281.202 58.0749 281.093 58.0749H278.679C278.643 58.9364 278.625 59.8342 278.625 60.6866V62.5547L278.634 62.5819Z" fill="#B76E79"/>
<path d="M287.717 62.6998C287.717 63.7609 287.944 64.0964 288.279 64.0964C288.579 64.0964 288.842 63.9513 288.933 63.8153C289.005 63.7246 289.041 63.6883 289.123 63.7427L289.314 63.8969C289.368 63.9513 289.404 64.042 289.296 64.2324C289.15 64.5136 288.787 65.1483 287.835 65.1483C287.163 65.1483 286.673 64.6587 286.51 63.8969H286.474C286.083 64.3594 285.466 64.7584 284.622 65.0395C284.269 65.1484 283.933 65.1483 283.524 65.1483C283.08 65.1483 282.399 64.7765 282.399 63.5976C282.399 62.7361 282.79 61.9925 284.269 61.3396C285.112 60.9678 286.083 60.5143 286.383 60.2513V59.0543C286.346 58.7369 286.328 58.2472 286.12 58.0114C285.911 57.7666 285.539 57.6033 284.994 57.6033C284.622 57.6033 284.042 57.7575 283.779 57.9933C283.515 58.2381 283.688 58.5193 283.688 58.8548C283.688 59.5077 283.461 59.9249 282.699 59.9249C282.399 59.9249 282.254 59.7526 282.254 59.3264C282.254 58.7278 282.78 58.0205 283.543 57.5671C284.323 57.0955 284.985 56.9141 285.82 56.9141C286.655 56.9141 287.054 57.1771 287.317 57.4129C287.708 57.8028 287.726 58.2381 287.726 58.7369V62.6998H287.717ZM286.356 60.8136C285.684 61.3214 283.851 61.6932 283.851 63.244C283.851 63.9332 284.26 64.2687 284.822 64.2687C285.385 64.2687 286.356 63.6158 286.356 63.1079V60.8136Z" fill="#B76E79"/>
<path d="M292.562 59.3535C292.562 60.3239 292.562 63.1442 292.58 63.7246C292.598 64.042 292.671 64.305 293.061 64.305H293.905C294.068 64.305 294.114 64.3594 294.114 64.4773V64.7947C294.114 64.9035 294.078 64.9851 294.005 64.9851C293.878 64.9851 293.052 64.9307 291.891 64.9307C290.729 64.9307 289.949 64.9851 289.776 64.9851C289.686 64.9851 289.649 64.9125 289.649 64.7947V64.4773C289.649 64.3503 289.686 64.305 289.894 64.305H290.793C291.001 64.305 291.183 64.178 291.201 63.8425C291.219 63.2621 291.219 60.0518 291.219 58.9636V57.7847C291.219 56.4607 291.201 54.7558 291.165 54.2752C291.128 53.6404 290.829 53.3411 290.23 53.1507L289.858 53.0237C289.767 52.9874 289.749 52.9693 289.749 52.933V52.7879C289.749 52.7335 289.804 52.6972 289.913 52.661C290.566 52.3617 291.41 52.0262 292.099 51.5727C292.263 51.4639 292.381 51.4276 292.49 51.4276C292.617 51.4276 292.662 51.5183 292.644 51.7632C292.626 52.7879 292.571 56.6783 292.571 57.7031V59.3626L292.562 59.3535Z" fill="#B76E79"/>
<path d="M39.8709 33.472L39.7802 33.6533C39.0633 34.805 38.0833 35.3582 37.4572 35.594C36.7948 35.7482 35.9147 35.7754 34.7441 35.7754H28.3561V17.4206C28.3561 16.7768 28.4105 16.5954 28.8279 16.3959L30.1618 15.7611H24.4634L25.7972 16.3959C26.2146 16.5954 26.2691 16.7768 26.2691 17.4206V34.9501C26.2691 35.5849 26.2146 35.7754 25.7972 35.9749L24.4634 36.6097H38.8819L39.3265 35.1224L39.8618 33.4629L39.8709 33.472Z" fill="#B76E79"/>
<path d="M278.897 33.472L278.806 33.6533C278.089 34.805 277.109 35.3582 276.483 35.594C275.821 35.7482 274.941 35.7754 273.77 35.7754H267.382V17.4206C267.382 16.7768 267.436 16.5954 267.854 16.3959L269.188 15.7611H263.489L264.823 16.3959C265.241 16.5954 265.295 16.7768 265.295 17.4206V34.9501C265.295 35.5849 265.241 35.7754 264.823 35.9749L263.489 36.6097H277.908L278.352 35.1224L278.888 33.4629L278.897 33.472Z" fill="#B76E79"/>
<path d="M305.148 36.6187L303.551 35.9749C303.551 35.9749 302.979 35.7391 302.607 34.8776L293.787 15.3349L293.47 15.9425C293.47 15.9425 293.152 16.5501 292.662 17.4751C292.662 17.4751 290.384 21.8914 289.232 24.1404C287.181 28.1487 286.21 31.2048 287.644 34.0433C288.579 35.9023 291.156 36.9089 293.107 36.9089V36.5734V36.3739V36.0384C291.373 36.0384 289.214 35.2222 288.415 33.6533C287.599 32.0391 287.617 30.3161 288.497 27.913H297.226L300.484 35.1496C300.556 35.3129 300.593 35.458 300.602 35.5668C300.574 35.8479 300.493 35.9658 300.221 36.0928L299.123 36.6187H300.538H305.175H305.148ZM288.833 27.0696C289.132 26.335 289.522 25.5007 289.994 24.5576L290.575 23.424C291.437 21.7373 292.353 19.9599 293.043 18.6268L296.827 27.0696H288.833Z" fill="#B76E79"/>
<path d="M326.653 15.7702L328.005 16.414C328.431 16.6135 328.486 16.7858 328.486 17.4116V17.7834V32.6376L316.018 15.9153L315.918 15.7792H312.298L313.623 16.405C314.04 16.6045 314.095 16.7858 314.095 17.4206V17.8197V18.3456V35.9295C314.104 36.2016 314.076 36.2741 313.904 36.3648L313.341 36.6369H315.737L315.174 36.3648C315.002 36.2832 314.975 36.2016 314.975 35.9295V33.0639H314.984V33.0004V17.9829L329.357 37.2989V17.5113V17.4479C329.357 16.7949 329.402 16.6226 329.838 16.414L331.19 15.7702H326.653Z" fill="#B76E79"/>
<path d="M355 33.481C355 33.481 354.927 33.5445 354.909 33.5626C354.882 33.5898 354.846 33.6261 354.809 33.6533C354.746 33.7168 354.682 33.7803 354.619 33.8438C354.492 33.9707 354.365 34.1067 354.247 34.2337C354.011 34.4876 353.793 34.7597 353.539 35.0045C353.339 35.1859 353.131 35.3582 352.877 35.4761C352.532 35.6303 352.142 35.6756 351.77 35.7119C351.425 35.7481 351.089 35.7572 350.744 35.7754C350.454 35.7754 350.173 35.7844 349.882 35.7844H343.322V26.2987H348.049L350.055 26.2806C350.309 26.2806 350.381 26.2987 350.463 26.471L350.717 26.997V24.7571L350.463 25.2831C350.381 25.4463 350.309 25.4735 350.055 25.4735H348.049H343.322V16.6226H349.193C351.334 16.6226 352.396 16.5229 352.913 17.2121C352.922 17.2302 352.931 17.2483 352.94 17.2665L353.82 18.8625V15.7792H339.429L340.763 16.414C341.18 16.6135 341.235 16.7949 341.235 17.4388V34.9683C341.235 35.6121 341.189 35.7844 340.763 35.993L339.429 36.6278H354.02L354.583 34.7415C354.719 34.3244 354.846 33.8982 355 33.481Z" fill="#B76E79"/>
</g>
<defs>
<clipPath id="clip0_1_12">
<rect width="355" height="70" fill="white"/>
</clipPath>
</defs>
</svg>
