<svg width="169" height="177" viewBox="0 0 169 177" fill="none" xmlns="http://www.w3.org/2000/svg">
<g clip-path="url(#clip0_1_724)">
<path d="M168.439 126.569C152.462 122.435 128.045 115.046 126.432 113.63C125.163 112.522 117.615 102.61 109.769 93.1881C119.856 81.2998 122.67 59.0192 110.467 37.5608C110.227 37.0583 109.472 36.9784 109.14 37.5037C109.014 37.7207 106.098 52.4983 92.1109 57.7287C84.4369 60.6066 77.9637 66.2367 74.2239 73.34C71.5935 73.5455 68.8029 73.831 65.9323 74.1965C63.4734 69.1716 61.9409 65.9397 61.4491 64.7521C65.5663 59.9899 65.0517 53.5375 64.4455 50.3285C73.6063 37.7207 73.3204 15.1889 67.6592 3.0493C67.4305 2.56966 66.7901 2.46688 66.4241 2.84374C66.3898 2.878 65.4405 3.86013 63.8051 5.33332C61.0488 2.58108 53.0088 -2.32956 32.3084 1.23351C31.8967 1.30203 31.6222 1.69031 31.6909 2.10143L32.3199 5.87006C26.4414 6.52101 10.5902 9.68437 6.8961 14.8577C4.86037 17.7013 5.08911 20.6819 5.88968 23.0345C4.24279 22.4635 2.64165 21.7897 1.13201 20.9788C0.811783 20.8075 0.411499 20.8875 0.182765 21.173C-0.0459687 21.4585 -0.034532 21.8696 0.205639 22.1437C0.285695 22.2351 8.41718 31.5082 11.528 40.0276C15.8968 52.0072 27.6194 59.2019 39.8681 60.3896C42.0411 64.044 45.9867 69.0346 51.4077 69.3886C51.6708 70.0852 52.2197 71.3414 53.0775 73.1687C49.5893 72.9403 45.5293 72.906 44.5686 73.831C44.317 74.0823 44.1912 74.402 44.214 74.7332C44.2712 75.4984 45.5521 76.5033 47.1876 77.5083C41.3892 78.9358 37.901 80.3405 36.8374 81.6995C31.748 88.2203 33.8066 119.409 39.9825 123.942C39.9367 126.204 40.3599 135.933 50.5271 139.645C51.076 141.472 53.7637 148.827 61.6893 150.391C62.7529 151.773 68.0367 158.02 75.928 156.741C81.5434 155.827 85.8665 154.548 87.1588 154.149C88.1995 154.971 91.642 157.54 96.434 159.756C100.494 167.613 104.668 175.573 105.469 176.669C105.618 176.863 105.846 176.977 106.075 176.977C106.544 176.977 106.99 176.749 108.717 176.726C111.519 176.68 115.362 176.543 115.934 173.231C115.968 173.026 115.911 172.809 115.785 172.638C115.602 172.398 114.778 171.005 111.21 164.153C116.437 166.071 125.403 170.399 137.354 176.76C137.72 176.954 138.178 176.817 138.384 176.452C138.578 176.087 138.441 175.63 138.075 175.424C124.637 168.264 115.259 163.821 110.204 162.2C108.706 159.299 106.796 155.599 104.394 150.882C107.619 150.471 111.187 149.672 115.122 148.427C115.522 148.301 115.739 147.879 115.613 147.479C115.487 147.079 115.064 146.863 114.664 146.988C71.399 160.635 76.7743 119.272 56.3712 111.654C45.8952 107.749 40.6458 89.271 47.5421 86.1761C54.7015 82.9671 77.369 101.639 80.537 103.192C83.785 104.791 104.817 111.038 105.709 111.3C106.109 111.415 106.533 111.186 106.647 110.786C106.761 110.387 106.533 109.964 106.132 109.85C105.984 109.804 96.1938 106.904 88.84 104.528C96.1137 103.489 103.445 99.9145 108.728 94.2844C116.7 103.866 123.996 113.482 125.415 114.726C128.011 117.01 167.261 128.019 168.234 128.019C168.565 128.019 168.874 127.791 168.965 127.448C169.068 127.049 168.828 126.626 168.428 126.523L168.439 126.569ZM73.4462 74.9388C71.9023 78.3534 71.1589 81.8022 71.2504 85.0227C69.4891 81.4711 67.9452 78.342 66.6299 75.6468C68.9745 75.3613 71.2618 75.1215 73.4348 74.9388H73.4462ZM8.10839 15.7599C11.1162 11.5573 25.3435 8.14266 32.5486 7.38893L33.5093 13.1447C22.187 15.954 16.5029 17.3701 14.3071 21.2529C14.1012 21.6184 14.227 22.0752 14.593 22.2807C14.959 22.4863 15.4164 22.3607 15.6223 21.9952C17.5094 18.672 22.999 17.313 33.9324 14.595C41.8352 12.6308 47.0503 11.3403 50.7444 11.5002C51.1561 11.523 51.5106 11.1918 51.5335 10.7807C51.5564 10.3582 51.2247 10.0156 50.813 9.99272C47.1418 9.83284 42.224 10.9863 34.9846 12.7792L33.292 2.61534C52.6429 -0.570869 60.0882 3.82587 62.65 6.34971C57.5149 10.7921 47.7937 18.0325 37.8552 19.243C33.9096 19.7226 32.8574 21.8582 34.3327 25.1472C28.683 25.7867 17.5208 26.4833 7.71955 23.6511C6.75886 21.5384 6.11841 18.5349 8.09696 15.7599H8.10839ZM12.9347 39.5479C10.7274 33.4838 6.19847 27.2142 3.48797 23.7882C14.2156 28.1735 27.5279 27.4997 35.0876 26.5861C36.2083 28.5047 37.9239 30.7316 39.9481 33.2669C40.2112 33.598 40.6801 33.6437 41.0118 33.3925C41.3434 33.1298 41.3892 32.6616 41.1376 32.3304C38.347 28.8244 34.5157 24.0052 35.3163 22.0523C35.5908 21.3785 36.5057 20.9446 38.0497 20.7504C51.1675 19.1516 63.4963 7.85716 66.71 4.70521C73.0574 19.7912 71.9823 51.5276 51.9224 57.6488C54.7358 52.19 50.8816 45.4635 47.5535 40.6899C47.3134 40.3473 46.8445 40.2674 46.5014 40.4958C46.1583 40.7356 46.0782 41.2038 46.3069 41.5464C51.6364 49.1865 52.7344 54.3141 49.8523 58.0827C40.7258 61.1547 19.4307 57.3861 12.9347 39.5479ZM41.7094 60.5495C45.1404 60.6865 47.9081 60.2868 50.0353 59.613C50.7787 59.7729 57.8694 58.1855 63.1646 51.973C63.7708 56.5981 63.2561 63.4159 56.1768 66.8876C50.2526 69.7769 45.2776 66.0882 41.7094 60.5609V60.5495ZM56.8745 75.053C57.2976 75.0987 57.6636 74.8017 57.7093 74.3792C57.7551 73.9681 57.4577 73.5912 57.0346 73.5455C56.417 73.477 55.6507 73.4085 54.793 73.3285C53.8323 71.2843 53.2948 70.0852 53.0088 69.3772C55.6736 69.0917 58.407 67.6299 60.294 65.9283C61.8952 69.5257 67.4305 80.763 72.0395 90.0361C72.2911 91.418 72.8973 94.1702 74.121 96.9453C70.2325 94.193 66.2754 91.4979 62.547 89.3167C61.4034 87.0098 60.3398 84.8286 59.3562 82.8072C59.8594 82.8757 60.3283 82.8986 60.7172 82.5788C61.4263 81.9964 60.66 80.8886 59.8594 81.334C58.1325 81.551 47.6565 76.5947 45.9067 74.8246C47.3477 74.3906 52.4713 74.5848 56.8745 75.053ZM75.6764 155.279C70.0724 156.193 65.8065 152.652 63.8737 150.62C70.4612 150.951 77.918 149.855 83.6363 146.566C85.9122 148.199 88.5198 149.501 91.5619 150.311C91.7106 150.608 91.8707 150.905 92.0194 151.214C84.231 153.418 81.6349 154.308 75.6764 155.268V155.279ZM88.9658 153.646L92.717 152.584C93.5176 154.149 94.3754 155.816 95.256 157.529C92.4311 156.067 90.2238 154.571 88.9544 153.646H88.9658ZM102.781 151.099C107.905 161.138 111.393 167.853 113.2 171.199C111.473 170.73 109.415 170.742 108.237 171.164C107.848 171.301 107.642 171.747 107.779 172.135C107.928 172.523 108.362 172.729 108.751 172.592C110.158 172.078 113.212 172.432 114.344 173.357C113.52 175.732 108.717 175.002 106.418 175.39C105.114 173.243 100.494 164.438 93.4833 150.757C96.5483 151.339 99.682 151.385 102.781 151.099ZM82.3211 145.561C76.557 148.655 68.5284 149.592 62.2383 148.975C56.0281 147.879 53.2719 142.648 52.3112 140.182C59.8022 142.043 68.7229 142.02 76.5456 139.325C78.2268 141.609 80.1138 143.745 82.3211 145.549V145.561ZM75.6306 138.046C67.8765 140.604 59.0131 140.444 51.362 138.366C42.6472 135.362 41.5607 127.78 41.4807 124.833C49.3491 128.819 59.6421 130.372 69.5577 127.928C71.502 131.331 73.389 134.803 75.6192 138.046H75.6306ZM46.9245 84.84C38.4271 88.6543 44.3398 108.822 55.8451 113.116C61.6436 115.286 65.3033 120.562 68.78 126.558C53.4663 130.132 41.2748 122.995 41.149 122.926C35.6251 119.637 33.2806 88.7571 38.0268 82.6702C38.3584 82.2476 40.1426 80.7059 49.1089 78.6503C51.4191 79.8837 54.9302 81.5053 57.4234 82.3276C58.2812 84.0977 59.219 85.9934 60.2025 88.0148C54.7358 85.0684 49.9552 83.5038 46.9245 84.8628V84.84ZM106.773 94.1816C100.563 100.234 92.7628 102.781 86.9186 103.261C85.146 103.409 81.7264 102.21 81.1202 101.913C80.2739 101.49 76.9001 99.1265 76.3969 98.0873C74.1896 93.4964 73.4577 89.0883 73.3776 88.8142C70.4956 79.3012 78.1238 64.5922 92.6484 59.1562C103.868 54.9536 108.374 44.8925 109.884 40.3473C110.741 43.2709 111.691 48.9809 109.152 56.0043C108.969 56.4953 109.346 57.0207 109.861 57.0207C110.169 57.0207 110.467 56.8265 110.57 56.5182C112.274 51.8131 112.48 47.6333 112.171 44.4015C120.165 62.8677 118.221 83.0128 106.773 94.1931V94.1816Z" fill="black" fill-opacity="0.2"/>
<path d="M105.08 65.0488C104.749 64.7976 104.268 64.8547 104.017 65.1973C102.782 66.819 101.363 68.4292 99.7852 69.9937C99.2248 67.8696 98.3899 63.2673 100.38 59.9783C100.78 59.316 100.048 58.5508 99.362 58.9277C98.9846 59.1332 90.1212 64.1124 91.2763 76.3547C91.8595 82.5901 88.5886 89.8304 85.7409 94.8096C85.535 95.175 85.6609 95.6318 86.0268 95.8374C86.3928 96.043 86.8503 95.9174 87.0561 95.5519C90.0182 90.3786 93.4035 82.8299 92.7859 76.2063C92.054 68.4977 95.5993 63.9411 98.001 61.7827C96.8231 66.3507 98.6072 71.4098 98.6987 71.6611C98.8817 72.175 99.5336 72.3234 99.9338 71.9466C101.924 70.0508 103.697 68.0866 105.218 66.0995C105.469 65.7683 105.412 65.2887 105.069 65.0374L105.08 65.0488Z" fill="black" fill-opacity="0.2"/>
</g>
<defs>
<clipPath id="clip0_1_724">
<rect width="169" height="177" fill="white"/>
</clipPath>
</defs>
</svg>
