<svg width="53" height="63" viewBox="0 0 53 63" fill="none" xmlns="http://www.w3.org/2000/svg">
<g clip-path="url(#clip0_1_271)">
<path d="M38.5832 52.6992C31.1036 58.2611 20.7372 57.9925 13.5638 52.0451C6.39041 46.0977 4.29526 36.0439 8.50744 27.7704C8.69115 27.4325 8.67803 27.0253 8.46807 26.7048C8.25812 26.3842 7.8907 26.198 7.50579 26.224C7.12088 26.25 6.7797 26.4795 6.61786 26.8261C5.04759 29.9016 4.22965 33.2976 4.24277 36.7456C4.24277 45.0971 9.00608 52.7295 16.5469 56.4634C24.0877 60.1974 33.1113 59.3917 39.8604 54.3799C40.1622 54.1547 40.3241 53.7865 40.2759 53.4139C40.2322 53.0414 39.9873 52.7209 39.6417 52.5736C39.2918 52.4263 38.8938 52.474 38.5876 52.6992H38.5832Z" fill="black"/>
<path d="M26.5021 14.6974C21.682 14.6845 16.993 16.2309 13.1439 19.1071C12.6759 19.4536 12.5796 20.1121 12.9339 20.5755C13.2882 21.039 13.9487 21.1343 14.4167 20.7835C21.9094 15.2259 32.2802 15.5118 39.4449 21.4722C46.6139 27.4326 48.6915 37.4994 44.4619 45.7643C44.2869 46.0978 44.3088 46.5007 44.5143 46.8169C44.7199 47.1331 45.083 47.315 45.4635 47.2934C45.8441 47.2717 46.1809 47.0508 46.3514 46.7172C47.9436 43.6288 48.7659 40.2067 48.7572 36.737C48.744 24.5694 38.7844 14.7061 26.4978 14.6931L26.5021 14.6974Z" fill="black"/>
<path d="M39.633 29.4987L33.1594 28.5284C32.792 28.4635 32.4771 28.2252 32.324 27.8874L29.4065 21.797C28.8948 20.6664 27.7575 19.9387 26.5065 19.9387C25.2556 19.9387 24.1183 20.6664 23.6066 21.797L20.6891 27.8874C20.536 28.2252 20.2211 28.4678 19.8537 28.5284L13.3801 29.4987C12.1641 29.6893 11.1625 30.5427 10.7907 31.7036C10.3752 32.9121 10.6813 34.2506 11.5868 35.1603L16.2276 39.8211C16.5163 40.12 16.6475 40.5359 16.5731 40.9387L15.4709 47.5532C15.2434 48.8224 15.7771 50.1046 16.8356 50.8539C17.8154 51.5513 19.1101 51.625 20.1686 51.0489L26.021 47.8824C26.3272 47.7135 26.699 47.7135 27.0052 47.8824L32.8576 51.0489C33.9118 51.625 35.2108 51.5513 36.1906 50.8539C37.2491 50.1046 37.7784 48.8224 37.5553 47.5532L36.4531 40.9387C36.3831 40.5315 36.5099 40.12 36.7986 39.8211L41.4438 35.1603C42.3492 34.2506 42.6554 32.9121 42.2399 31.7036C41.8681 30.5427 40.8664 29.6893 39.6505 29.4987H39.633ZM39.9173 33.6832L35.2721 38.344C34.5066 39.1194 34.1611 40.211 34.3448 41.2853L35.447 47.8997C35.5389 48.3762 35.3421 48.8614 34.9484 49.1473C34.6291 49.3812 34.2048 49.4072 33.8593 49.2122L28.0068 46.0458C27.0664 45.5346 25.9292 45.5346 24.9888 46.0458L19.1363 49.2122C18.7908 49.4072 18.3665 49.3812 18.0472 49.1473C17.6535 48.8614 17.4611 48.3762 17.5485 47.8997L18.6508 41.2853C18.8301 40.2153 18.489 39.1281 17.7235 38.3527L13.0783 33.6875C12.7371 33.3366 12.6234 32.8255 12.7852 32.3663C12.9077 31.9548 13.2533 31.6516 13.6819 31.578L20.1555 30.6077C21.2227 30.4431 22.1369 29.7586 22.5918 28.7883L25.5093 22.698C25.6755 22.3038 26.0648 22.0439 26.4934 22.0439C26.9221 22.0439 27.3157 22.3038 27.4776 22.698L30.395 28.7883C30.8499 29.7586 31.7641 30.4431 32.8314 30.6077L39.3049 31.578C39.7292 31.6516 40.0791 31.9548 40.2016 32.3663C40.3591 32.8255 40.241 33.3366 39.8998 33.6832H39.9173Z" fill="black"/>
<path d="M27.5607 7.34653V1.04827C27.5607 0.467822 27.0883 0 26.5022 0C25.9161 0 25.4437 0.472153 25.4437 1.04827V7.34653C25.4437 7.92698 25.9204 8.3948 26.5022 8.3948C27.0883 8.3948 27.5607 7.92698 27.5607 7.34653Z" fill="black"/>
<path d="M34.979 8.39913V1.04827C34.979 0.467822 34.5066 0 33.9205 0C33.3344 0 32.862 0.472153 32.862 1.04827V8.3948C32.862 8.97525 33.3344 9.44307 33.9205 9.44307C34.5066 9.44307 34.979 8.97525 34.979 8.3948V8.39913Z" fill="black"/>
<path d="M40.2803 11.5483C40.2803 12.1287 40.7527 12.5965 41.3388 12.5965C41.925 12.5965 42.3974 12.1244 42.3974 11.5483V7.35088C42.3974 6.77043 41.925 6.30261 41.3388 6.30261C40.7527 6.30261 40.2803 6.77477 40.2803 7.35088V11.5483Z" fill="black"/>
<path d="M41.3432 4.1974C41.9293 4.1974 42.4017 3.72525 42.4017 3.14913V1.04827C42.4017 0.467822 41.9249 0 41.3432 0C40.7614 0 40.2847 0.472153 40.2847 1.04827V3.14913C40.2847 3.72958 40.7571 4.1974 41.3432 4.1974Z" fill="black"/>
<path d="M49.8201 6.29827C49.8201 5.71782 49.3477 5.25 48.7616 5.25C48.1754 5.25 47.703 5.72215 47.703 6.29827V21.013C42.7035 14.3942 34.8478 10.4957 26.5022 10.4957C18.1565 10.4957 10.3008 14.3942 5.30129 21.013V6.29827C5.30129 5.71782 4.82452 5.25 4.24278 5.25C3.66103 5.25 3.18426 5.72215 3.18426 6.29827V24.2877C-2.06456 33.9171 -0.726111 45.7599 6.53476 54.0074C13.7956 62.255 25.4655 65.1702 35.8101 61.328C46.1546 57.4858 53.0087 47.6875 53.0044 36.7457C53.0087 32.3967 51.9152 28.117 49.8244 24.2921V6.29827H49.8201ZM26.5022 60.8861C13.0389 60.8861 2.12138 50.0743 2.12138 36.7413C2.12138 23.4084 13.0346 12.5965 26.5022 12.5965C39.9698 12.5965 50.883 23.4084 50.883 36.7413C50.8698 50.0699 39.961 60.8688 26.5022 60.8861Z" fill="black"/>
<path d="M20.1424 8.39913V1.04827C20.1424 0.467822 19.6656 0 19.0838 0C18.5021 0 18.0253 0.472153 18.0253 1.04827V8.3948C18.0253 8.97525 18.5021 9.44307 19.0838 9.44307C19.67 9.44307 20.1424 8.97525 20.1424 8.3948V8.39913Z" fill="black"/>
<path d="M10.6026 11.5483C10.6026 12.1287 11.0794 12.5965 11.6611 12.5965C12.2429 12.5965 12.7196 12.1244 12.7196 11.5483V7.35088C12.7196 6.77043 12.2429 6.30261 11.6611 6.30261C11.0794 6.30261 10.6026 6.77477 10.6026 7.35088V11.5483Z" fill="black"/>
<path d="M11.6611 4.1974C12.2472 4.1974 12.7196 3.72525 12.7196 3.14913V1.04827C12.7196 0.467822 12.2472 0 11.6611 0C11.075 0 10.6026 0.472153 10.6026 1.04827V3.14913C10.6026 3.72958 11.075 4.1974 11.6611 4.1974Z" fill="black"/>
</g>
<defs>
<clipPath id="clip0_1_271">
<rect width="53" height="63" fill="white"/>
</clipPath>
</defs>
</svg>
