<svg width="73" height="62" viewBox="0 0 73 62" fill="none" xmlns="http://www.w3.org/2000/svg">
<g clip-path="url(#clip0_1_231)">
<path d="M72.9144 16.9094C72.8966 16.8694 72.8752 16.8295 72.8538 16.7931C72.8074 16.7022 72.7539 16.615 72.6861 16.5387C72.5863 16.4296 72.4721 16.3424 72.3438 16.2733C72.301 16.2479 72.2546 16.2261 72.2047 16.2043C72.1833 16.197 72.1619 16.1788 72.1405 16.1715L58.1739 11.8388L52.6992 9.97772C52.5031 9.91593 52.2927 9.90866 52.0894 9.95227L44.1467 7.48783C43.9148 7.41877 43.6687 7.41877 43.4369 7.48783L15.4538 16.1679C15.4289 16.1752 15.411 16.1933 15.3896 16.2006C15.3433 16.2188 15.2969 16.2442 15.2505 16.2697C15.1221 16.3387 15.008 16.4296 14.9081 16.535C14.8404 16.6114 14.7869 16.6986 14.7405 16.7895C14.7191 16.8258 14.6977 16.8658 14.6799 16.9058C14.63 17.0403 14.6014 17.1857 14.5979 17.3311V26.0366H9.72952V28.5156H21.895V26.0366H17.0267V19.1012L24.3274 21.6893V32.2377C24.3274 32.7466 24.6305 33.2009 25.0906 33.3899L31.1751 35.8689C31.7993 36.1233 32.5055 35.8144 32.7587 35.1783C32.8158 35.0329 32.8479 34.873 32.8443 34.7167V24.7062L42.5774 28.1557V56.5295L17.0267 47.4787V47.1152C17.0267 46.4318 16.481 45.8757 15.8105 45.8757C15.14 45.8757 14.5943 46.4318 14.5943 47.1152V48.3547C14.5943 48.8817 14.9224 49.3506 15.411 49.5251L43.3941 59.4447H43.4155C43.5297 59.481 43.6473 59.5028 43.765 59.5065H43.7936C43.9327 59.5065 44.0718 59.4774 44.2037 59.4265C44.2144 59.4265 44.2251 59.4265 44.2358 59.4192L72.2189 48.2602C72.6826 48.0748 72.9893 47.6204 72.9929 47.1116V17.3347C72.9893 17.1893 72.9572 17.0439 72.9037 16.9094H72.9144ZM19.7444 17.4365L43.8007 9.97408L48.2375 11.3517L25.9145 19.6247L19.7444 17.4365ZM30.419 32.8883L26.7705 31.4017V22.9142L30.419 24.4009V32.8883ZM32.4698 21.9474L29.5488 20.9114L52.1108 12.5512L55.77 13.6889L32.4662 21.9474H32.4698ZM43.8007 25.9675L36.1719 23.2632L59.7218 14.9139L67.857 17.4365L43.7971 25.9639L43.8007 25.9675ZM70.5676 46.2719L45.0169 56.4605V28.1593L70.5676 19.1085V46.2719Z" fill="black"/>
<path d="M4.86833 34.7203H0V37.1993H4.86833V34.7203Z" fill="black"/>
<path d="M7.29713 42.1609H3.64856V44.6399H7.29713V42.1609Z" fill="black"/>
<path d="M17.0338 42.1609V39.6819C17.0338 38.9985 16.4881 38.4424 15.8176 38.4424C15.1471 38.4424 14.6014 38.9985 14.6014 39.6819V42.1609H9.73309V44.6398H30.4155V42.1609H17.0302H17.0338Z" fill="black"/>
<path d="M7.29713 26.0402H3.64856V28.5191H7.29713V26.0402Z" fill="black"/>
<path d="M17.0338 34.7203V31.0018C17.0338 30.3185 16.4881 29.7623 15.8176 29.7623C15.1471 29.7623 14.6014 30.3185 14.6014 31.0018V34.7203H7.30072V37.1993H24.3345V34.7203H17.0338Z" fill="black"/>
<path d="M59.6184 0H41.3683V2.47898H59.6184V0Z" fill="black"/>
<path d="M38.9324 0H35.2838V2.47898H38.9324V0Z" fill="black"/>
<path d="M31.6352 59.521H13.3852V62H31.6352V59.521Z" fill="black"/>
<path d="M10.9493 59.521H7.30072V62H10.9493V59.521Z" fill="black"/>
<path d="M51.6436 27.4106C51.0943 27.1307 50.4274 27.3125 50.0885 27.8322L46.9785 32.583L49.0043 33.9606L49.8852 32.6121V35.9598H52.3176V30.5257L54.0795 31.4235L55.1673 29.2062L51.6436 27.4106Z" fill="black"/>
<path d="M60.1605 23.6884C59.6112 23.4086 58.9443 23.5903 58.6054 24.1101L55.4954 28.8609L57.5212 30.2385L58.4022 28.8899V32.2377H60.8345V26.8035L62.5964 27.7013L63.6842 25.4841L60.1605 23.6884Z" fill="black"/>
</g>
<defs>
<clipPath id="clip0_1_231">
<rect width="73" height="62" fill="white"/>
</clipPath>
</defs>
</svg>
