<svg width="21" height="15" viewBox="0 0 21 15" fill="none" xmlns="http://www.w3.org/2000/svg">
<g clip-path="url(#clip0_1_686)">
<path d="M1.59411 3.33955H4.83763C5.00689 3.33955 5.14506 3.20828 5.14506 3.04746C5.14506 2.88665 5.00689 2.75537 4.83763 2.75537H1.59411C1.42485 2.75537 1.28668 2.88665 1.28668 3.04746C1.28668 3.20828 1.42485 3.33955 1.59411 3.33955Z" fill="white"/>
<path d="M4.72713 4.74561H3.44561C3.27635 4.74561 3.13818 4.87688 3.13818 5.0377C3.13818 5.19851 3.27635 5.32979 3.44561 5.32979H4.72713C4.89639 5.32979 5.03456 5.19851 5.03456 5.0377C5.03456 4.87688 4.89639 4.74561 4.72713 4.74561Z" fill="white"/>
<path d="M0.307427 6.77217H3.4456C3.61485 6.77217 3.75302 6.64089 3.75302 6.48008C3.75302 6.31927 3.61485 6.18799 3.4456 6.18799H0.307427C0.138169 6.18799 0 6.31927 0 6.48008C0 6.64089 0.138169 6.77217 0.307427 6.77217Z" fill="white"/>
<path d="M5.14679 11.9542C5.14679 11.7934 5.00862 11.6621 4.83936 11.6621H1.59411C1.42485 11.6621 1.28668 11.7934 1.28668 11.9542C1.28668 12.115 1.42485 12.2463 1.59411 12.2463H4.83763C5.00689 12.2463 5.14506 12.115 5.14506 11.9542H5.14679Z" fill="white"/>
<path d="M4.72713 9.67041H3.44561C3.27635 9.67041 3.13818 9.80169 3.13818 9.9625C3.13818 10.1233 3.27635 10.2546 3.44561 10.2546H4.72713C4.89639 10.2546 5.03456 10.1233 5.03456 9.9625C5.03456 9.80169 4.89639 9.67041 4.72713 9.67041Z" fill="white"/>
<path d="M3.75302 8.51963C3.75302 8.35882 3.61485 8.22754 3.4456 8.22754H0.307427C0.138169 8.22754 0 8.35882 0 8.51963C0 8.68044 0.138169 8.81172 0.307427 8.81172H3.4456C3.61485 8.81172 3.75302 8.68044 3.75302 8.51963Z" fill="white"/>
<path d="M13.1053 3.98609C13.2746 3.98609 13.4128 3.85481 13.4128 3.694V3.24766C13.4128 3.08684 13.2746 2.95557 13.1053 2.95557C12.9361 2.95557 12.7979 3.08684 12.7979 3.24766V3.694C12.7979 3.85481 12.9361 3.98609 13.1053 3.98609Z" fill="white"/>
<path d="M16.487 4.28635C16.3661 4.17148 16.1727 4.17148 16.0518 4.28635L15.7202 4.60141C15.5993 4.71628 15.5993 4.90006 15.7202 5.01493C15.8411 5.1298 16.0345 5.1298 16.1554 5.01493L16.487 4.69987C16.6079 4.585 16.6079 4.40121 16.487 4.28635Z" fill="white"/>
<path d="M17.1105 7.2085C16.9413 7.2085 16.8031 7.33977 16.8031 7.50059C16.8031 7.6614 16.9413 7.79268 17.1105 7.79268H17.5803C17.7496 7.79268 17.8877 7.6614 17.8877 7.50059C17.8877 7.33977 17.7496 7.2085 17.5803 7.2085H17.1105Z" fill="white"/>
<path d="M16.1554 9.98508C16.0345 9.87021 15.8411 9.87021 15.7202 9.98508C15.5993 10.0999 15.5993 10.2837 15.7202 10.3986L16.0518 10.7137C16.1727 10.8285 16.3661 10.8285 16.487 10.7137C16.6079 10.5988 16.6079 10.415 16.487 10.3001L16.1554 9.98508Z" fill="white"/>
<path d="M12.7979 11.3063V11.7526C12.7979 11.9134 12.9361 12.0447 13.1053 12.0447C13.2746 12.0447 13.4128 11.9134 13.4128 11.7526V11.3063C13.4128 11.1454 13.2746 11.0142 13.1053 11.0142C12.9361 11.0142 12.7979 11.1454 12.7979 11.3063Z" fill="white"/>
<path d="M10.0553 9.98508L9.72367 10.3001C9.60277 10.415 9.60277 10.5988 9.72367 10.7137C9.84457 10.8285 10.038 10.8285 10.1589 10.7137L10.4905 10.3986C10.6114 10.2837 10.6114 10.0999 10.4905 9.98508C10.3696 9.87021 10.1762 9.87021 10.0553 9.98508Z" fill="white"/>
<path d="M8.63043 7.2085C8.46117 7.2085 8.323 7.33977 8.323 7.50059C8.323 7.6614 8.46117 7.79268 8.63043 7.79268H9.1002C9.26946 7.79268 9.40763 7.6614 9.40763 7.50059C9.40763 7.33977 9.26946 7.2085 9.1002 7.2085H8.63043Z" fill="white"/>
<path d="M10.4905 4.60287L10.1589 4.28781C10.038 4.17294 9.84457 4.17294 9.72367 4.28781C9.60277 4.40268 9.60277 4.58646 9.72367 4.70133L10.0553 5.0164C10.1762 5.13126 10.3696 5.13126 10.4905 5.0164C10.6114 4.90153 10.6114 4.71774 10.4905 4.60287Z" fill="white"/>
<path d="M14.7599 7.5006C14.7599 7.33978 14.6217 7.20851 14.4525 7.20851H13.4128V5.03916C13.4128 4.87835 13.2746 4.74707 13.1053 4.74707C12.9361 4.74707 12.7979 4.87835 12.7979 5.03916V7.5006C12.7979 7.66141 12.9361 7.79269 13.1053 7.79269H14.4525C14.6217 7.79269 14.7599 7.66141 14.7599 7.5006Z" fill="white"/>
<path d="M18.9378 7.45182C19.1071 7.44197 19.2366 7.30413 19.2262 7.14168C19.0311 4.07473 16.342 1.67236 13.1053 1.67236C9.86872 1.67236 6.97235 4.28641 6.97235 7.49941C6.97235 10.7124 9.72365 13.3264 13.1053 13.3264C16.1347 13.3264 18.7202 11.2178 19.1692 8.37075C19.1951 8.21158 19.0794 8.06225 18.9102 8.03764C18.7426 8.01303 18.5855 8.12297 18.5596 8.28378C18.1554 10.8404 15.8325 12.7406 13.1036 12.7406C10.0604 12.7406 7.58548 10.3891 7.58548 7.49777C7.58548 4.6064 10.0604 2.2549 13.1036 2.2549C16.1468 2.2549 18.4352 4.41605 18.6114 7.1745C18.6217 7.33531 18.7668 7.45838 18.9378 7.44854V7.45182Z" fill="white"/>
<path d="M13.1054 0C12.0242 0 10.9638 0.213325 9.98793 0.612077H4.56133C4.39208 0.612077 4.25391 0.743354 4.25391 0.904168C4.25391 1.06498 4.39208 1.19626 4.56133 1.19626H8.83076C8.25391 1.54906 7.72196 1.97571 7.25391 2.46636C7.13992 2.58615 7.15028 2.77158 7.27463 2.87988C7.40071 2.98818 7.59588 2.97834 7.70987 2.86019C9.0881 1.41451 11.0553 0.585822 13.1071 0.585822C17.1209 0.585822 20.3852 3.68887 20.3852 7.50082C20.3852 11.3128 17.1192 14.4158 13.1071 14.4158C9.09501 14.4158 5.82904 11.3128 5.82904 7.50082C5.82904 6.16508 6.22973 4.86872 6.98966 3.75287C7.0812 3.61667 7.04147 3.43617 6.89812 3.3492C6.75477 3.26222 6.56479 3.29997 6.47325 3.43617C5.64942 4.64719 5.21418 6.05349 5.21418 7.50082C5.21418 10.1411 6.65805 12.468 8.83594 13.8037H4.56479C4.39553 13.8037 4.25736 13.935 4.25736 14.0958C4.25736 14.2566 4.39553 14.3879 4.56479 14.3879H9.98793C10.9465 14.7818 12.0017 15 13.1106 15C17.4629 15 21.0052 11.636 21.0052 7.49918C21.0052 3.36232 17.4577 0 13.1054 0Z" fill="white"/>
</g>
<defs>
<clipPath id="clip0_1_686">
<rect width="21" height="15" fill="white"/>
</clipPath>
</defs>
</svg>
