<svg width="16" height="18" viewBox="0 0 16 18" fill="none" xmlns="http://www.w3.org/2000/svg">
<g clip-path="url(#clip0_1_67)">
<path d="M8.03208 10.1724C8.9489 10.1724 9.86572 10.1611 10.7825 10.1746C13.2709 10.2105 15.5678 12.2951 15.9058 14.8763C16.0128 15.6934 15.9893 16.5295 15.9989 17.3578C16.0032 17.7276 15.7304 17.9933 15.418 18C15.0971 18.0067 14.8296 17.7344 14.8178 17.3488C14.7997 16.7436 14.8189 16.1361 14.7954 15.5309C14.7141 13.5123 13.119 11.709 11.2019 11.459C10.9473 11.4254 10.6884 11.4075 10.4317 11.4064C8.78415 11.4019 7.13772 11.4019 5.49022 11.4041C3.32066 11.4075 1.54264 12.9934 1.24845 15.2428C1.16286 15.894 1.21314 16.5643 1.20779 17.2266C1.20458 17.5472 1.13077 17.8196 0.817314 17.9507C0.503861 18.0807 0.148686 17.898 0.0491945 17.5606C0.0417058 17.5337 0.0342172 17.5068 0.0320776 17.4788C-0.0716935 15.6564 -0.00643536 13.8721 1.16072 12.359C2.24015 10.9592 3.63411 10.2082 5.35864 10.1746C6.24871 10.1567 7.13879 10.1712 8.02887 10.1712V10.1735L8.03208 10.1724Z" fill="#7E7E7E"/>
<path d="M12.2792 4.46189C12.2952 6.88057 10.3696 8.9193 8.05025 8.93835C5.7138 8.95853 3.76569 6.95678 3.74322 4.51681C3.72182 2.05554 5.63356 0.0201723 7.985 -2.08938e-06C10.3279 -0.0201764 12.2631 1.99053 12.2792 4.46189ZM11.0928 4.45068C11.0832 2.69327 9.66673 1.22055 8.00532 1.24072C6.29043 1.26202 4.90824 2.72129 4.92856 4.48655C4.94996 6.26189 6.32466 7.69091 8.01388 7.69539C9.69989 7.69875 11.1013 6.22154 11.0917 4.45068H11.0928Z" fill="#7E7E7E"/>
</g>
<defs>
<clipPath id="clip0_1_67">
<rect width="16" height="18" fill="white"/>
</clipPath>
</defs>
</svg>
