<svg width="16" height="16" viewBox="0 0 16 16" fill="none" xmlns="http://www.w3.org/2000/svg">
<path d="M15.861 0.136414C15.7295 0.00485943 15.5284 -0.0373373 15.3546 0.0321632L0.295385 6.05885C0.121634 6.12586 0.00745445 6.29217 7.97238e-06 6.47585C-0.00743851 6.66201 0.0968122 6.83328 0.263117 6.91519L6.20292 9.7945L9.08223 15.7343C9.16166 15.8956 9.32548 15.9974 9.5042 15.9974C9.50916 15.9974 9.51412 15.9974 9.52157 15.9974C9.70773 15.99 9.87156 15.8758 9.94106 15.702L15.9653 0.642774C16.0348 0.469023 15.995 0.270451 15.861 0.136414ZM1.6283 6.53542L13.5849 1.7523L6.45859 8.87858L1.6283 6.53542ZM9.46448 14.3716L7.12132 9.54132L14.2476 2.41504L9.46448 14.3716Z" fill="white"/>
</svg>
